<svg width="228" height="189" viewBox="0 0 228 189" fill="none" xmlns="http://www.w3.org/2000/svg">
<path d="M64.7325 76.9365L158.225 76.9365C160.521 76.9365 162.382 75.0753 162.382 72.7794V4.32843C162.382 2.03255 160.521 0.171364 158.225 0.171364L64.7325 0.171364C62.4366 0.171364 60.5754 2.03255 60.5754 4.32843L60.5754 72.7794C60.5754 75.0753 62.4366 76.9365 64.7325 76.9365Z" fill="white"/>
<path d="M158.225 77.1078H64.7327C63.5851 77.1065 62.4849 76.6501 61.6734 75.8386C60.862 75.0272 60.4055 73.927 60.4043 72.7794V4.32842C60.4055 3.18084 60.862 2.08063 61.6734 1.26916C62.4849 0.457701 63.5851 0.00126601 64.7327 0L158.225 0C159.373 0.00126591 160.473 0.457695 161.285 1.26915C162.096 2.08061 162.553 3.18082 162.554 4.32842V72.7794C162.553 73.927 162.096 75.0272 161.285 75.8387C160.473 76.6501 159.373 77.1065 158.225 77.1078ZM64.7327 0.342713C63.676 0.343924 62.6629 0.764235 61.9157 1.51144C61.1685 2.25864 60.7482 3.27172 60.747 4.32842V72.7794C60.7482 73.8361 61.1685 74.8492 61.9157 75.5964C62.6629 76.3436 63.676 76.7639 64.7327 76.7651H158.225C159.282 76.7639 160.295 76.3436 161.042 75.5964C161.79 74.8492 162.21 73.8361 162.211 72.7794V4.32842C162.21 3.2717 161.79 2.25862 161.042 1.51142C160.295 0.764228 159.282 0.343924 158.225 0.342713H64.7327Z" fill="#292A2E"/>
<path d="M72.6908 6.61999L66.0087 7.25363C65.3186 7.31908 64.8121 7.93161 64.8776 8.62175L65.5112 15.3038C65.5767 15.994 66.1892 16.5004 66.8794 16.4349L73.5614 15.8013C74.2516 15.7358 74.758 15.1233 74.6925 14.4332L74.0589 7.75112C73.9934 7.06097 73.3809 6.55455 72.6908 6.61999Z" fill="#FF9800"/>
<path d="M91.7194 21.1152L85.0458 20.3972C84.3566 20.3231 83.7377 20.8217 83.6635 21.511L82.9455 28.1845C82.8714 28.8737 83.37 29.4926 84.0593 29.5668L90.7328 30.2848C91.422 30.359 92.0409 29.8603 92.1151 29.1711L92.8331 22.4975C92.9073 21.8083 92.4086 21.1894 91.7194 21.1152Z" fill="white"/>
<path d="M90.8696 30.5003C90.8164 30.5002 90.7633 30.4974 90.7105 30.4917L84.0371 29.7737C83.6514 29.7317 83.2981 29.5385 83.0547 29.2364C82.8113 28.9343 82.6977 28.548 82.7388 28.1622L83.4569 21.4891C83.4774 21.298 83.5354 21.1128 83.6275 20.9441C83.7196 20.7755 83.844 20.6266 83.9937 20.506C84.1433 20.3854 84.3152 20.2955 84.4996 20.2414C84.684 20.1873 84.8773 20.17 85.0684 20.1906L91.7417 20.9086C92.1275 20.9503 92.481 21.1434 92.7245 21.4456C92.968 21.7478 93.0814 22.1343 93.04 22.5201L92.3219 29.1932C92.2834 29.5517 92.1139 29.8834 91.8459 30.1246C91.5779 30.3658 91.2303 30.4996 90.8698 30.5003H90.8696ZM90.7548 30.0781C91.0309 30.1078 91.3076 30.0266 91.5239 29.8524C91.7401 29.6781 91.8784 29.4251 91.9081 29.1489L92.6264 22.4756C92.656 22.1994 92.5748 21.9227 92.4005 21.7064C92.2262 21.4901 91.9732 21.3518 91.697 21.3221L85.0235 20.6042C84.8867 20.5895 84.7484 20.6018 84.6164 20.6406C84.4844 20.6793 84.3614 20.7437 84.2543 20.83C84.1472 20.9163 84.0581 21.0228 83.9922 21.1436C83.9263 21.2643 83.8848 21.3968 83.8701 21.5336L83.1521 28.2067C83.1227 28.4829 83.2041 28.7594 83.3784 28.9756C83.5526 29.1919 83.8055 29.3302 84.0816 29.3602L90.7548 30.0781Z" fill="#292A2E"/>
<path d="M121.332 31.696C121.297 31.696 121.264 31.6877 121.234 31.6716C121.203 31.6556 121.178 31.6324 121.159 31.6041C116.924 25.3059 110.501 24.1592 105.856 24.3048C102.716 24.4243 99.6148 25.0497 96.6732 26.1568C96.6224 26.1774 96.5655 26.1771 96.5149 26.1559C96.4643 26.1348 96.4241 26.0945 96.4031 26.0438C96.382 25.9932 96.3819 25.9363 96.4026 25.8855C96.4233 25.8347 96.4633 25.7942 96.5137 25.7727C99.5021 24.6473 102.652 24.0112 105.843 23.8891C110.591 23.7397 117.163 24.916 121.504 31.3718C121.525 31.4031 121.537 31.4395 121.539 31.4771C121.541 31.5148 121.533 31.5522 121.515 31.5855C121.497 31.6188 121.471 31.6466 121.439 31.666C121.406 31.6855 121.369 31.6957 121.332 31.6958V31.696Z" fill="#292A2E"/>
<path d="M121.408 31.781C121.389 31.7809 121.37 31.7783 121.352 31.7731L117.091 30.5697C117.038 30.5547 116.993 30.5192 116.966 30.4711C116.939 30.423 116.932 30.3661 116.947 30.313C116.962 30.26 116.997 30.215 117.045 30.1881C117.094 30.1611 117.15 30.1544 117.204 30.1693L121.265 31.316L122.411 27.255C122.427 27.2032 122.463 27.1596 122.511 27.1337C122.559 27.1077 122.614 27.1015 122.667 27.1163C122.719 27.131 122.763 27.1657 122.79 27.2127C122.817 27.2598 122.825 27.3156 122.812 27.3682L121.608 31.6292C121.596 31.6728 121.57 31.7113 121.534 31.7387C121.498 31.7661 121.454 31.7809 121.408 31.781Z" fill="#292A2E"/>
<path d="M128.092 33.6465L121.41 34.2802C120.719 34.3456 120.213 34.9582 120.278 35.6483L120.912 42.3304C120.978 43.0205 121.59 43.5269 122.28 43.4615L128.962 42.8278C129.652 42.7624 130.159 42.1499 130.093 41.4597L129.46 34.7777C129.394 34.0875 128.782 33.5811 128.092 33.6465Z" fill="#FF4165"/>
<path d="M149.93 13.1042L143.232 12.6736C142.54 12.6291 141.943 13.1538 141.899 13.8457L141.468 20.5439C141.424 21.2357 141.948 21.8326 142.64 21.877L149.338 22.3077C150.03 22.3522 150.627 21.8274 150.672 21.1356L151.102 14.4374C151.147 13.7456 150.622 13.1487 149.93 13.1042Z" fill="#292A2E"/>
<path d="M153.715 34.9625L147.041 34.2445C146.352 34.1703 145.733 34.669 145.659 35.3582L144.941 42.0317C144.867 42.721 145.366 43.3399 146.055 43.414L152.728 44.1321C153.418 44.2062 154.036 43.7076 154.111 43.0183L154.829 36.3448C154.903 35.6555 154.404 35.0367 153.715 34.9625Z" fill="#0CBC8B"/>
<path d="M117.082 56.7017L110.4 57.3353C109.709 57.4007 109.203 58.0133 109.268 58.7034L109.902 65.3855C109.968 66.0756 110.58 66.582 111.27 66.5166L117.952 65.883C118.642 65.8175 119.149 65.205 119.083 64.5148L118.45 57.8328C118.384 57.1426 117.772 56.6362 117.082 56.7017Z" fill="white"/>
<path d="M111.151 66.7303C110.787 66.7296 110.437 66.5935 110.167 66.3486C109.898 66.1037 109.73 65.7674 109.695 65.4052L109.062 58.7231C109.026 58.3369 109.144 57.9521 109.391 57.6531C109.638 57.3541 109.994 57.1654 110.38 57.1283L117.062 56.4947C117.253 56.4765 117.446 56.4962 117.63 56.5527C117.814 56.6091 117.984 56.7012 118.133 56.8237C118.281 56.9461 118.403 57.0965 118.493 57.2663C118.583 57.4362 118.639 57.622 118.657 57.8133L119.29 64.4952C119.327 64.8814 119.208 65.2662 118.961 65.5652C118.714 65.8642 118.358 66.0529 117.972 66.09L111.29 66.7237C111.243 66.728 111.197 66.7303 111.151 66.7303ZM117.203 56.9039C117.169 56.9039 117.136 56.9056 117.102 56.9087L110.419 57.5417C110.143 57.5682 109.888 57.7033 109.711 57.9173C109.534 58.1314 109.449 58.4069 109.475 58.6834L110.109 65.3653C110.136 65.6416 110.271 65.896 110.485 66.0729C110.699 66.2498 110.974 66.3347 111.251 66.309L117.932 65.6754C118.209 65.6488 118.464 65.5137 118.64 65.2997C118.817 65.0856 118.902 64.8102 118.876 64.5337L118.243 57.8518C118.218 57.5926 118.098 57.3519 117.905 57.1766C117.713 57.0013 117.462 56.9038 117.202 56.9033L117.203 56.9039Z" fill="#FF9800"/>
<path d="M73.9963 54.4417L67.3142 55.0753C66.6241 55.1408 66.1177 55.7533 66.1831 56.4434L66.8167 63.1255C66.8822 63.8156 67.4947 64.3221 68.1849 64.2566L74.8669 63.623C75.5571 63.5575 76.0635 62.945 75.998 62.2548L75.3644 55.5728C75.299 54.8827 74.6864 54.3762 73.9963 54.4417Z" fill="#FF4165"/>
<path d="M127.457 30.2422C127.449 30.2421 127.441 30.2417 127.433 30.2409C127.406 30.2378 127.38 30.2293 127.356 30.2161C127.332 30.2028 127.311 30.185 127.294 30.1636C127.277 30.1422 127.264 30.1176 127.257 30.0914C127.249 30.0651 127.247 30.0376 127.25 30.0105C127.563 27.911 128.212 25.8756 129.173 23.9828C131.252 19.952 134.513 17.6402 138.601 17.2958C138.656 17.2911 138.711 17.3085 138.753 17.3441C138.795 17.3797 138.821 17.4306 138.826 17.4855C138.831 17.5405 138.813 17.5951 138.778 17.6372C138.742 17.6793 138.691 17.7056 138.636 17.7102C129.102 18.5121 127.677 29.9427 127.663 30.0581C127.657 30.1087 127.633 30.1554 127.595 30.1894C127.557 30.2233 127.508 30.2421 127.457 30.2422Z" fill="#292A2E"/>
<path d="M136.624 19.7711C136.583 19.7711 136.542 19.759 136.508 19.7362C136.474 19.7134 136.447 19.6809 136.431 19.643C136.416 19.605 136.412 19.5632 136.42 19.5229C136.427 19.4825 136.447 19.4455 136.476 19.4163L138.398 17.4863L136.468 15.5648C136.448 15.5456 136.432 15.5227 136.421 15.4974C136.41 15.472 136.404 15.4447 136.404 15.4171C136.404 15.3895 136.409 15.3621 136.419 15.3366C136.43 15.311 136.445 15.2877 136.465 15.2682C136.484 15.2486 136.507 15.2331 136.533 15.2226C136.558 15.2121 136.586 15.2068 136.613 15.2069C136.641 15.2071 136.668 15.2128 136.694 15.2236C136.719 15.2345 136.742 15.2503 136.761 15.2701L138.838 17.3384C138.877 17.3774 138.899 17.4303 138.899 17.4855C138.899 17.5406 138.877 17.5935 138.838 17.6325L136.77 19.7098C136.751 19.7292 136.728 19.7446 136.703 19.7551C136.678 19.7656 136.651 19.7711 136.624 19.7711Z" fill="#292A2E"/>
<path d="M113.937 53.5953C113.893 53.5953 113.85 53.5811 113.814 53.5546C113.778 53.5281 113.752 53.4909 113.739 53.4483C113.708 53.3466 110.717 43.247 118.459 39.0577C118.483 39.0441 118.51 39.0354 118.537 39.0321C118.565 39.0289 118.593 39.0312 118.619 39.0388C118.646 39.0464 118.671 39.0593 118.692 39.0766C118.714 39.094 118.731 39.1154 118.745 39.1398C118.758 39.1641 118.766 39.1908 118.769 39.2183C118.771 39.2458 118.769 39.2736 118.76 39.3C118.752 39.3264 118.739 39.351 118.721 39.3722C118.703 39.3934 118.682 39.4108 118.657 39.4235C111.216 43.4489 114.107 53.2273 114.137 53.3256C114.146 53.3567 114.148 53.3896 114.143 53.4217C114.137 53.4537 114.125 53.484 114.105 53.5102C114.086 53.5363 114.061 53.5576 114.032 53.5722C114.003 53.5869 113.971 53.5945 113.938 53.5945L113.937 53.5953Z" fill="#292A2E"/>
<path d="M117.668 41.8318C117.635 41.8318 117.601 41.8235 117.571 41.8077C117.541 41.7919 117.516 41.7691 117.497 41.7412C117.478 41.7132 117.466 41.6811 117.462 41.6475C117.458 41.6139 117.462 41.5799 117.475 41.5484L118.342 39.3197L116.114 38.4513C116.063 38.4306 116.023 38.391 116.001 38.3409C115.98 38.2909 115.979 38.2343 115.999 38.1835C116.018 38.1327 116.057 38.0917 116.107 38.0693C116.157 38.0469 116.213 38.0448 116.264 38.0636L118.687 39.0065C118.712 39.0164 118.736 39.0313 118.755 39.0502C118.775 39.0691 118.791 39.0917 118.802 39.1167C118.813 39.1417 118.819 39.1686 118.819 39.1959C118.82 39.2232 118.815 39.2504 118.805 39.2758L117.862 41.6983C117.847 41.7375 117.821 41.7713 117.786 41.7951C117.751 41.819 117.71 41.8318 117.668 41.8318Z" fill="#292A2E"/>
<path d="M88.0732 19.2448C88.018 19.2448 87.9651 19.2228 87.9261 19.1838C87.8871 19.1448 87.8652 19.092 87.8652 19.0368C87.8652 15.8777 86.9329 13.4662 85.0936 11.8696C81.8286 9.03572 76.7505 9.71886 76.6996 9.72614C76.645 9.73394 76.5895 9.71974 76.5454 9.68665C76.5013 9.65356 76.4721 9.60429 76.4643 9.54969C76.4565 9.49509 76.4707 9.43962 76.5038 9.39549C76.5369 9.35136 76.5861 9.32219 76.6407 9.31438C76.856 9.2834 81.9542 8.59568 85.3643 11.5537C87.3 13.2329 88.2813 15.7507 88.2811 19.0368C88.2811 19.0641 88.2758 19.0911 88.2653 19.1164C88.2549 19.1416 88.2395 19.1645 88.2202 19.1838C88.2009 19.2032 88.178 19.2185 88.1528 19.2289C88.1275 19.2394 88.1005 19.2448 88.0732 19.2448Z" fill="#292A2E"/>
<path d="M88.0831 19.3192C88.0767 19.3192 88.07 19.3192 88.0636 19.3192C88.0364 19.3167 88.01 19.3088 87.9858 19.296C87.9616 19.2832 87.9402 19.2658 87.9228 19.2448L86.0526 16.9866C86.0175 16.9441 86.0006 16.8893 86.0058 16.8344C86.0109 16.7795 86.0377 16.7288 86.0802 16.6936C86.1227 16.6585 86.1774 16.6416 86.2324 16.6468C86.2873 16.6519 86.3379 16.6787 86.3731 16.7212L88.1114 18.8201L90.2093 17.0833C90.2303 17.0658 90.2546 17.0527 90.2807 17.0447C90.3068 17.0367 90.3342 17.0339 90.3614 17.0364C90.3886 17.039 90.415 17.0469 90.4392 17.0597C90.4633 17.0725 90.4847 17.0899 90.5021 17.1109C90.5195 17.132 90.5326 17.1562 90.5406 17.1823C90.5487 17.2084 90.5515 17.2359 90.5489 17.263C90.5463 17.2902 90.5384 17.3166 90.5257 17.3408C90.5129 17.3649 90.4955 17.3863 90.4744 17.4037L88.2154 19.2722C88.1781 19.3027 88.1313 19.3193 88.0831 19.3192Z" fill="#292A2E"/>
<path d="M92.6811 42.1858H85.969C85.2758 42.1858 84.7138 42.7477 84.7138 43.441V50.153C84.7138 50.8463 85.2758 51.4082 85.969 51.4082H92.6811C93.3743 51.4082 93.9363 50.8463 93.9363 50.153V43.441C93.9363 42.7477 93.3743 42.1858 92.6811 42.1858Z" fill="#0CBC8B"/>
<path d="M109.776 54.4523C109.729 54.4522 109.684 54.4367 109.648 54.4082C109.611 54.3797 109.586 54.3398 109.574 54.2949C107.256 45.02 95.9192 45.6705 95.8065 45.6782C95.7791 45.68 95.7517 45.6765 95.7258 45.6677C95.6999 45.659 95.6759 45.6452 95.6553 45.6272C95.6347 45.6092 95.6178 45.5873 95.6057 45.5628C95.5935 45.5382 95.5863 45.5116 95.5845 45.4843C95.5826 45.457 95.5862 45.4295 95.5949 45.4036C95.6037 45.3777 95.6174 45.3537 95.6354 45.3331C95.6535 45.3125 95.6753 45.2956 95.6999 45.2835C95.7244 45.2713 95.7511 45.2641 95.7784 45.2623C97.8664 45.1916 99.9517 45.4661 101.95 46.0745C104.918 47.0018 108.72 49.1631 109.977 54.193C109.984 54.2195 109.985 54.247 109.981 54.2741C109.977 54.3011 109.968 54.3271 109.954 54.3505C109.94 54.3739 109.921 54.3943 109.899 54.4106C109.878 54.4269 109.853 54.4386 109.826 54.4452C109.81 54.4497 109.793 54.4521 109.776 54.4523Z" fill="#292A2E"/>
<path d="M109.805 54.5224C109.761 54.5224 109.719 54.5089 109.684 54.4839L107.331 52.8138C107.286 52.7818 107.255 52.7333 107.246 52.679C107.237 52.6246 107.25 52.5688 107.282 52.5238C107.314 52.4789 107.362 52.4484 107.417 52.4393C107.471 52.4301 107.527 52.4429 107.572 52.4748L109.753 54.0229L111.308 51.7682C111.339 51.7232 111.387 51.6925 111.441 51.6828C111.495 51.6731 111.551 51.6852 111.596 51.7163C111.641 51.7475 111.672 51.7953 111.683 51.8493C111.693 51.9033 111.681 51.959 111.65 52.0044L109.976 54.4325C109.96 54.4552 109.94 54.4746 109.917 54.4894C109.894 54.5043 109.868 54.5145 109.841 54.5193C109.829 54.5213 109.817 54.5224 109.805 54.5224Z" fill="#292A2E"/>
<path d="M212.041 188.254L212.449 188.175L206.066 124.742L205.657 124.821L212.041 188.254Z" fill="#494949"/>
<path d="M188.271 188.254L188.68 188.175L182.297 124.742L181.888 124.821L188.271 188.254Z" fill="#494949"/>
<path d="M135.731 188.254L135.323 188.175L141.707 124.742L142.115 124.821L135.731 188.254Z" fill="#494949"/>
<path d="M159.501 188.254L159.092 188.175L165.475 124.742L165.884 124.821L159.501 188.254Z" fill="#494949"/>
<path d="M167.964 96.8232L164.235 124.753L164.647 124.808L168.376 96.8782L167.964 96.8232Z" fill="#494949"/>
<path d="M210.766 96.8231L207.037 124.753L207.449 124.808L211.178 96.8781L210.766 96.8231Z" fill="#494949"/>
<path d="M164.273 126.827H206.139C207.268 126.827 208.184 125.911 208.184 124.781V124.781C208.184 123.652 207.268 122.736 206.139 122.736H164.273C163.143 122.736 162.227 123.652 162.227 124.781V124.781C162.227 125.911 163.143 126.827 164.273 126.827Z" fill="#292A2E"/>
<path opacity="0.8" d="M164.273 126.827H206.139C207.268 126.827 208.184 125.911 208.184 124.781V124.781C208.184 123.652 207.268 122.736 206.139 122.736H164.273C163.143 122.736 162.227 123.652 162.227 124.781V124.781C162.227 125.911 163.143 126.827 164.273 126.827Z" fill="white"/>
<path d="M162.019 124.781C162.02 124.184 162.258 123.611 162.68 123.189C163.103 122.767 163.675 122.529 164.273 122.528H206.139C206.736 122.528 207.309 122.766 207.732 123.188C208.154 123.611 208.392 124.184 208.392 124.782C208.392 125.379 208.154 125.952 207.732 126.375C207.309 126.797 206.736 127.035 206.139 127.035H164.273C163.675 127.034 163.102 126.796 162.68 126.374C162.258 125.952 162.02 125.379 162.019 124.781ZM164.273 122.944C163.785 122.944 163.318 123.138 162.973 123.482C162.629 123.827 162.435 124.294 162.435 124.781C162.435 125.269 162.629 125.736 162.973 126.081C163.318 126.425 163.785 126.619 164.273 126.619H206.139C206.626 126.619 207.093 126.425 207.438 126.081C207.782 125.736 207.976 125.269 207.976 124.781C207.976 124.294 207.782 123.827 207.438 123.482C207.093 123.138 206.626 122.944 206.139 122.944H164.273Z" fill="#292A2E"/>
<path d="M141.294 126.827H183.16C184.29 126.827 185.206 125.911 185.206 124.781V124.781C185.206 123.652 184.29 122.736 183.16 122.736H141.294C140.165 122.736 139.249 123.652 139.249 124.781V124.781C139.249 125.911 140.165 126.827 141.294 126.827Z" fill="white"/>
<path d="M139.04 124.781C139.041 124.184 139.279 123.611 139.701 123.189C140.124 122.766 140.697 122.529 141.294 122.528H183.16C183.758 122.528 184.331 122.766 184.754 123.188C185.176 123.611 185.414 124.184 185.414 124.782C185.414 125.379 185.176 125.952 184.754 126.375C184.331 126.797 183.758 127.035 183.16 127.035H141.294C140.697 127.034 140.124 126.797 139.701 126.374C139.279 125.952 139.041 125.379 139.04 124.781ZM141.294 122.944C141.053 122.944 140.814 122.992 140.591 123.084C140.368 123.176 140.166 123.312 139.995 123.482C139.825 123.653 139.689 123.856 139.597 124.078C139.505 124.301 139.457 124.54 139.457 124.782C139.457 125.023 139.505 125.262 139.597 125.485C139.689 125.708 139.825 125.91 139.995 126.081C140.166 126.251 140.368 126.387 140.591 126.479C140.814 126.571 141.053 126.619 141.294 126.619H183.16C183.648 126.619 184.115 126.425 184.459 126.081C184.804 125.736 184.998 125.269 184.998 124.782C184.998 124.294 184.804 123.827 184.459 123.482C184.115 123.138 183.648 122.944 183.16 122.944H141.294Z" fill="#292A2E"/>
<path d="M170.259 96.8519H210.862C211.526 96.8519 212.168 96.6103 212.666 96.1722C213.165 95.7341 213.487 95.1295 213.573 94.4712L216.259 73.8456C216.309 73.4601 216.276 73.0683 216.163 72.6964C216.05 72.3244 215.859 71.981 215.602 71.6888C215.346 71.3967 215.03 71.1627 214.676 71.0023C214.321 70.842 213.937 70.7591 213.548 70.7591H172.945C172.281 70.7589 171.64 71.0005 171.141 71.4386C170.642 71.8768 170.319 72.4817 170.234 73.1402L167.548 93.7654C167.498 94.151 167.53 94.5429 167.644 94.9148C167.757 95.2868 167.948 95.6303 168.205 95.9225C168.462 96.2146 168.778 96.4486 169.132 96.6089C169.486 96.7692 169.871 96.852 170.259 96.8519Z" fill="#292A2E"/>
<path opacity="0.8" d="M170.259 96.8519H210.862C211.526 96.8519 212.168 96.6103 212.666 96.1722C213.165 95.7341 213.487 95.1295 213.573 94.4712L216.259 73.8456C216.309 73.4601 216.276 73.0683 216.163 72.6964C216.05 72.3244 215.859 71.981 215.602 71.6888C215.346 71.3967 215.03 71.1627 214.676 71.0023C214.321 70.842 213.937 70.7591 213.548 70.7591H172.945C172.281 70.7589 171.64 71.0005 171.141 71.4386C170.642 71.8768 170.319 72.4817 170.234 73.1402L167.548 93.7654C167.498 94.151 167.53 94.5429 167.644 94.9148C167.757 95.2868 167.948 95.6303 168.205 95.9225C168.462 96.2146 168.778 96.4486 169.132 96.6089C169.486 96.7692 169.871 96.852 170.259 96.8519Z" fill="white"/>
<path d="M168.05 96.0594C167.774 95.7451 167.568 95.3755 167.446 94.9752C167.324 94.575 167.289 94.1534 167.343 93.7386L170.029 73.1134C170.123 72.4056 170.47 71.7559 171.006 71.2848C171.543 70.8136 172.232 70.5531 172.946 70.5515H213.549C213.967 70.5515 214.381 70.6408 214.762 70.8133C215.143 70.9858 215.483 71.2377 215.759 71.552C216.035 71.8664 216.241 72.2361 216.363 72.6363C216.484 73.0365 216.52 73.4582 216.465 73.873L213.78 94.498C213.686 95.2058 213.339 95.8555 212.803 96.3266C212.266 96.7977 211.577 97.0583 210.863 97.0598H170.259C169.841 97.0597 169.428 96.9704 169.047 96.7978C168.666 96.6253 168.326 96.3736 168.05 96.0594ZM172.945 70.9675C172.332 70.969 171.741 71.1928 171.281 71.5973C170.82 72.0017 170.522 72.5595 170.442 73.167L167.756 93.7922C167.709 94.1484 167.74 94.5104 167.844 94.854C167.949 95.1976 168.126 95.515 168.363 95.7849C168.6 96.0548 168.892 96.271 169.219 96.4192C169.546 96.5673 169.901 96.6439 170.26 96.6439H210.863C211.476 96.6426 212.068 96.4189 212.529 96.0144C212.989 95.6099 213.287 95.052 213.368 94.4444L216.053 73.8192C216.1 73.463 216.07 73.101 215.965 72.7574C215.86 72.4138 215.684 72.0964 215.447 71.8265C215.21 71.5566 214.918 71.3404 214.591 71.1922C214.263 71.0441 213.908 70.9675 213.549 70.9675H172.945Z" fill="#292A2E"/>
<path d="M167.963 96.8519H208.566C209.23 96.8519 209.871 96.6103 210.37 96.1722C210.869 95.7341 211.191 95.1295 211.277 94.4712L213.963 73.8456C214.013 73.4601 213.98 73.0683 213.867 72.6963C213.754 72.3244 213.563 71.9809 213.306 71.6888C213.05 71.3967 212.734 71.1627 212.379 71.0023C212.025 70.842 211.641 70.7591 211.252 70.7591H170.65C169.986 70.7591 169.345 71.0007 168.846 71.4387C168.347 71.8767 168.025 72.4813 167.939 73.1396L165.253 93.7648C165.203 94.1503 165.235 94.5421 165.349 94.9141C165.462 95.2861 165.653 95.6296 165.91 95.9218C166.166 96.214 166.482 96.4481 166.836 96.6085C167.19 96.7689 167.575 96.8519 167.963 96.8519Z" fill="white"/>
<path d="M165.753 96.0594C165.477 95.745 165.271 95.3754 165.149 94.9752C165.027 94.575 164.992 94.1534 165.046 93.7386L167.732 73.1134C167.826 72.4055 168.173 71.7557 168.71 71.2845C169.246 70.8134 169.936 70.553 170.65 70.5515H211.253C211.671 70.5515 212.085 70.6408 212.466 70.8133C212.847 70.9858 213.187 71.2377 213.463 71.552C213.739 71.8664 213.945 72.2361 214.067 72.6363C214.188 73.0365 214.223 73.4582 214.169 73.873L211.484 94.498C211.39 95.2058 211.043 95.8555 210.506 96.3266C209.97 96.7977 209.281 97.0582 208.567 97.0598H167.963C167.545 97.0598 167.132 96.9705 166.75 96.798C166.369 96.6255 166.029 96.3737 165.753 96.0594ZM170.65 70.9675C170.037 70.9689 169.445 71.1926 168.984 71.5971C168.524 72.0016 168.226 72.5594 168.145 73.167L165.459 93.7922C165.413 94.1484 165.443 94.5104 165.548 94.854C165.652 95.1976 165.829 95.515 166.066 95.7849C166.303 96.0548 166.595 96.271 166.922 96.4192C167.25 96.5673 167.605 96.6439 167.964 96.6439H208.566C209.179 96.6426 209.771 96.4189 210.232 96.0144C210.692 95.6099 210.99 95.052 211.071 94.4444L213.757 73.8194C213.803 73.4632 213.773 73.1012 213.668 72.7575C213.564 72.4139 213.387 72.0965 213.15 71.8266C212.913 71.5567 212.621 71.3405 212.294 71.1923C211.966 71.0442 211.611 70.9675 211.252 70.9675H170.65Z" fill="#292A2E"/>
<path d="M137.276 177.266C137.276 177.266 136.162 183.046 130.75 183.368C125.338 183.69 126.512 188.001 126.512 188.001H147.192V177.669L137.276 177.266Z" fill="#FF4165"/>
<path d="M155.832 173.617C155.832 173.617 157.383 179.295 152.669 181.973C147.955 184.651 150.911 188.001 150.911 188.001L169.468 178.872L164.907 169.602L155.832 173.617Z" fill="#FF4165"/>
<path d="M167.325 172.013L151.677 122.646H180.042C185.74 122.646 188.115 117.814 188.115 112.116C188.115 106.419 182.514 101.424 176.816 101.424H138.533C135.058 101.424 131.161 103.549 129.254 106.454C127.347 109.359 127.862 113.861 129.244 117.05L154.303 177.912" fill="#262626"/>
<path opacity="0.8" d="M167.325 172.013L151.677 122.646H180.042C185.74 122.646 188.115 117.814 188.115 112.116C188.115 106.419 182.514 101.424 176.816 101.424H138.533C135.058 101.424 131.161 103.549 129.254 106.454C127.347 109.359 127.862 113.861 129.244 117.05L154.303 177.912" fill="#0A0A0A"/>
<path d="M148.809 181.409L153.758 122.646L188.115 122.643C196.165 122.012 199.852 117.6 199.735 111.904C199.619 106.28 196.771 100.725 191.172 100.725H144.867C140.725 100.81 135.929 104.728 135.929 109.235L133.522 180.726" fill="#262626"/>
<path d="M202.079 100.794C202.079 100.794 203.604 110.744 201.186 116.276C198.167 123.182 186.848 122.644 186.848 122.644L187.486 100.725L202.079 100.794Z" fill="#262626"/>
<path d="M203.76 99.6691L203.804 99.6716C203.804 99.6716 203.772 98.8239 203.76 99.6691Z" fill="#333333"/>
<path d="M203.705 99.6691L203.749 99.6716C203.749 99.6716 203.717 98.8239 203.705 99.6691Z" fill="#333333"/>
<path d="M130.05 59.3302C130.13 59.1699 130.259 59.0386 130.418 58.9546C130.577 58.8705 130.758 58.8379 130.936 58.861C130.934 58.8452 130.938 58.8293 130.946 58.8155C130.954 58.8048 130.965 58.7966 130.977 58.7915C130.99 58.7864 131.003 58.7847 131.017 58.7866L130.416 58.3557C130.236 58.2326 130.107 58.0487 130.053 57.8379C129.998 57.6272 130.022 57.4038 130.119 57.209C130.221 57.0197 130.39 56.8751 130.593 56.8033C130.796 56.7315 131.018 56.7375 131.217 56.8204C131.216 56.8118 131.221 56.8037 131.223 56.795L130.976 56.618C130.807 56.5014 130.684 56.3301 130.627 56.1331C130.57 55.9361 130.582 55.7254 130.663 55.5366C130.716 55.4193 130.794 55.3151 130.892 55.2317C130.99 55.1483 131.105 55.0876 131.23 55.0542C131.354 55.0208 131.484 55.0153 131.611 55.0383C131.738 55.0613 131.858 55.1121 131.963 55.1871L132.533 55.5955C132.534 55.5922 132.533 55.5882 132.535 55.5851C132.537 55.582 132.543 55.5807 132.546 55.5774C132.416 55.4302 132.339 55.2428 132.328 55.0461C132.318 54.8494 132.375 54.655 132.489 54.4948C132.758 54.062 133.379 54.1504 133.748 54.4145L137.102 56.7316L136.503 55.7201C136.382 55.5258 136.34 55.293 136.384 55.0686C136.428 54.8442 136.556 54.645 136.742 54.5112C136.84 54.4455 136.95 54.4005 137.067 54.379C137.183 54.3574 137.302 54.3597 137.417 54.3858C137.532 54.4119 137.641 54.4612 137.737 54.5306C137.832 54.6001 137.913 54.6883 137.973 54.7899L141.247 60.3007C141.631 60.9473 141.748 61.7182 141.572 62.4495C141.397 63.1809 140.944 63.8151 140.308 64.2174C139.571 64.684 138.712 64.9199 137.84 64.8949C136.968 64.8698 136.124 64.585 135.415 64.0768L130.349 60.4459C130.181 60.3208 130.06 60.1426 130.005 59.9401C129.951 59.7376 129.967 59.5227 130.05 59.3302Z" fill="#E98862"/>
<g opacity="0.25">
<path d="M135.852 57.8834C135.84 57.9004 135.821 57.9118 135.801 57.9153C135.78 57.9188 135.759 57.9141 135.742 57.9021L132.554 55.6947C132.537 55.6825 132.525 55.664 132.522 55.6431C132.518 55.6223 132.522 55.6008 132.535 55.5834C132.547 55.5659 132.565 55.554 132.586 55.5501C132.607 55.5462 132.628 55.5507 132.646 55.5626L135.833 57.7705C135.842 57.7764 135.849 57.7841 135.855 57.7929C135.861 57.8017 135.865 57.8116 135.867 57.822C135.869 57.8324 135.868 57.843 135.866 57.8534C135.864 57.8637 135.86 57.8735 135.854 57.8822L135.852 57.8834Z" fill="#0C0C0C"/>
</g>
<g opacity="0.25">
<path d="M134.917 59.316C134.905 59.333 134.887 59.3444 134.866 59.3479C134.845 59.3514 134.824 59.3467 134.807 59.3348L131.251 56.8711C131.233 56.859 131.221 56.8405 131.217 56.8195C131.213 56.7986 131.218 56.777 131.23 56.7594C131.242 56.7424 131.261 56.7309 131.282 56.727C131.302 56.7231 131.324 56.7273 131.342 56.7386L134.899 59.2023C134.907 59.2083 134.915 59.2159 134.921 59.2247C134.926 59.2336 134.93 59.2434 134.932 59.2538C134.934 59.2642 134.934 59.2748 134.932 59.2852C134.93 59.2955 134.925 59.3053 134.919 59.314L134.917 59.316Z" fill="#0C0C0C"/>
</g>
<g opacity="0.25">
<path d="M133.914 60.8734C133.901 60.8904 133.883 60.9018 133.862 60.9053C133.842 60.9088 133.82 60.9041 133.803 60.8921L130.966 58.927C130.949 58.9146 130.938 58.8961 130.934 58.8755C130.931 58.8548 130.935 58.8337 130.947 58.8165C130.959 58.7993 130.977 58.7875 130.998 58.7835C131.019 58.7795 131.04 58.7836 131.057 58.7951L133.895 60.7603C133.903 60.7663 133.911 60.7739 133.917 60.7827C133.922 60.7916 133.926 60.8015 133.928 60.8118C133.93 60.8222 133.93 60.8329 133.928 60.8432C133.926 60.8535 133.921 60.8633 133.915 60.872L133.914 60.8734Z" fill="#0C0C0C"/>
</g>
<path d="M143.178 59.0461L152.793 75.4205L164.524 60.0331L174.267 68.8166L157.628 90.3642L157.519 90.5175C156.853 91.4297 155.966 92.1572 154.941 92.6317C153.916 93.1061 152.787 93.3118 151.661 93.2294C150.535 93.147 149.448 92.7791 148.503 92.1605C147.558 91.5419 146.786 90.693 146.26 89.6936L132.588 64.935L143.178 59.0461Z" fill="#FF9800"/>
<path d="M153.735 77.3894C153.756 77.3894 153.776 77.384 153.794 77.3738C153.813 77.3636 153.828 77.3489 153.839 77.3311C153.85 77.3132 153.856 77.2929 153.857 77.272C153.857 77.2511 153.853 77.2304 153.843 77.2118L152.901 75.3649C152.886 75.3372 152.86 75.3165 152.83 75.3072C152.799 75.298 152.767 75.3008 152.738 75.3152C152.71 75.3296 152.689 75.3544 152.678 75.3844C152.668 75.4144 152.67 75.4472 152.683 75.476L153.626 77.3228C153.636 77.3429 153.652 77.3597 153.671 77.3715C153.69 77.3832 153.712 77.3894 153.735 77.3894Z" fill="#0C0C0C"/>
<path d="M165.2 75.3275L164.956 75.3414L165.25 80.5131L165.493 80.4992L165.2 75.3275Z" fill="#0C0C0C"/>
<path d="M196.18 37.8981C196.18 37.8981 196.63 43.6548 197.951 45.73C201.752 51.704 202.911 58.4609 199.215 62.0405C195.519 65.6201 171.687 65.9455 169.787 57.8329C168.187 51.0021 171.441 50.2281 172.169 44.5694C172.499 42.0092 173.425 36.6377 173.425 36.6377" fill="#0A0A0A"/>
<path d="M175.854 56.535C175.896 56.5296 176.352 64.1047 185.153 63.445C191.246 62.9886 193.418 56.5242 193.558 56.5242C192.901 56.3847 191.794 56.1817 191.503 56.0251C190.543 55.5096 189.356 54.9733 189.047 53.1102C188.869 52.0363 189.172 46.5427 189.078 45.4561L179.726 47.5436C179.856 49.8382 180.771 55.1577 177.565 56.0992C177.032 56.2557 176.457 56.399 175.854 56.535Z" fill="#E98862"/>
<path opacity="0.52" d="M179.594 53.926C179.741 53.4538 179.835 52.9671 179.876 52.4744C179.979 51.3502 179.958 50.2182 179.815 49.0985C181.716 48.8419 183.506 48.0573 184.984 46.8338C185.157 47.4751 186.112 50.2776 185.848 50.8871C185.348 52.0394 182.999 53.926 179.594 53.926Z" fill="#0C0C0C"/>
<path d="M180.834 51.5418C184.525 51.8558 189.279 50.3256 190.21 45.4043L191.05 40.9636C191.982 36.0421 190.152 31.564 185.519 30.6864C180.885 29.8094 176.666 33.1436 175.735 38.0651L175.363 40.0309C175.005 41.9194 174.248 50.9813 180.834 51.5418Z" fill="#E98862"/>
<path d="M176.683 40.2453C177.004 40.2453 177.264 39.9853 177.264 39.6645C177.264 39.3437 177.004 39.0837 176.683 39.0837C176.362 39.0837 176.102 39.3437 176.102 39.6645C176.102 39.9853 176.362 40.2453 176.683 40.2453Z" fill="#0C0C0C"/>
<path d="M182.634 41.0401C182.955 41.0401 183.215 40.7801 183.215 40.4593C183.215 40.1385 182.955 39.8785 182.634 39.8785C182.313 39.8785 182.053 40.1385 182.053 40.4593C182.053 40.7801 182.313 41.0401 182.634 41.0401Z" fill="#0C0C0C"/>
<path d="M179.368 44.7179C179.365 44.7177 179.362 44.7172 179.359 44.7166C179.172 44.6796 178.986 44.6323 178.804 44.575C178.531 44.4875 178.174 44.3423 178.221 44.0967C178.274 43.8164 179.615 40.9358 179.768 40.6086C179.781 40.58 179.805 40.5579 179.835 40.547C179.864 40.5362 179.897 40.5376 179.926 40.5509C179.954 40.5643 179.977 40.5884 179.987 40.6181C179.998 40.6477 179.997 40.6805 179.984 40.7091C179.412 41.936 178.491 43.9532 178.455 44.1404C178.486 44.2279 178.938 44.3941 179.404 44.4825C179.434 44.4879 179.462 44.505 179.48 44.5302C179.498 44.5553 179.505 44.5865 179.501 44.6172C179.496 44.6478 179.48 44.6754 179.455 44.6942C179.431 44.713 179.4 44.7214 179.369 44.7177L179.368 44.7179Z" fill="#0C0C0C"/>
<path d="M180.054 46.8428C179.299 46.7446 178.576 46.4702 177.946 46.0417C177.92 46.0245 177.901 45.9974 177.895 45.9665C177.888 45.9357 177.894 45.9035 177.911 45.877C177.929 45.8506 177.956 45.832 177.986 45.8255C178.017 45.819 178.05 45.825 178.076 45.8423C179.44 46.7311 180.796 46.8748 181.996 46.2582C182.02 46.2449 182.045 46.233 182.07 46.2226C182.1 46.2119 182.133 46.2134 182.161 46.2268C182.19 46.2402 182.212 46.2644 182.223 46.2941C182.233 46.3237 182.232 46.3565 182.219 46.385C182.205 46.4136 182.181 46.4357 182.151 46.4464C182.142 46.4503 182.126 46.4587 182.105 46.4699C181.473 46.7954 180.76 46.9252 180.054 46.8428Z" fill="#0C0C0C"/>
<path d="M194.757 42.5112L190.604 41.7497C187.458 40.4766 186.507 35.0306 186.507 35.0306C186.507 35.0306 182.686 38.7551 173.426 36.6369C173.426 36.6369 175.283 23.7227 188.964 27.4776C193.375 28.6885 196.541 33.134 196.147 39.075C195.869 43.2385 194.757 42.5112 194.757 42.5112Z" fill="#0A0A0A"/>
<path d="M189.639 46.8492C191.047 47.1156 192.473 45.8252 192.74 44.4161C193.006 43.007 192.012 42.0153 190.604 41.7489L189.699 42.5551L188.428 46.6192L189.639 46.8492Z" fill="#E98862"/>
<path d="M178.919 38.2545C178.508 37.9893 178.033 37.8394 177.545 37.8207C177.304 37.81 177.063 37.8355 176.831 37.8962C176.6 37.9555 176.377 38.0436 176.169 38.1585C176.142 38.1745 176.122 38.1999 176.113 38.2298C176.104 38.2596 176.107 38.2917 176.121 38.3197C176.134 38.3478 176.158 38.3697 176.187 38.3813C176.215 38.3928 176.248 38.3932 176.277 38.3822L176.285 38.3783C176.478 38.2839 176.683 38.214 176.893 38.1703C177.101 38.1258 177.314 38.113 177.526 38.1325C177.946 38.1675 178.35 38.3132 178.695 38.5548L178.707 38.5629C178.726 38.5794 178.749 38.5916 178.774 38.5988C178.798 38.606 178.824 38.6081 178.85 38.6049C178.875 38.6018 178.9 38.5934 178.922 38.5803C178.944 38.5673 178.963 38.5498 178.978 38.5291C178.993 38.5083 179.004 38.4847 179.009 38.4596C179.015 38.4346 179.015 38.4087 179.01 38.3835C179.005 38.3583 178.995 38.3344 178.981 38.3133C178.966 38.2921 178.947 38.2742 178.926 38.2606L178.919 38.2545Z" fill="#0C0C0C"/>
<path d="M182.623 39.1267C183.033 39.0266 183.461 39.0364 183.866 39.1552C184.07 39.2137 184.265 39.3028 184.443 39.4195C184.623 39.5365 184.788 39.6756 184.934 39.8338L184.94 39.8404C184.963 39.8612 184.994 39.8725 185.025 39.8722C185.056 39.8718 185.086 39.8599 185.108 39.8386C185.131 39.8174 185.145 39.7884 185.148 39.7574C185.15 39.7264 185.141 39.6955 185.122 39.6709C184.969 39.4885 184.793 39.3261 184.6 39.1874C184.404 39.0466 184.189 38.9358 183.961 38.8589C183.499 38.6998 183.002 38.6681 182.523 38.7672C182.477 38.7802 182.438 38.8101 182.414 38.8508C182.389 38.8915 182.381 38.94 182.391 38.9864C182.401 39.0328 182.428 39.0737 182.467 39.1008C182.506 39.1279 182.554 39.1392 182.601 39.1323L182.609 39.1305L182.623 39.1267Z" fill="#0C0C0C"/>
<path d="M179.894 47.9601C179.757 47.9445 179.621 47.9173 179.489 47.8788C179.459 47.8701 179.433 47.8496 179.418 47.822C179.403 47.7944 179.399 47.7618 179.408 47.7315C179.416 47.7011 179.437 47.6755 179.464 47.6603C179.492 47.645 179.525 47.6413 179.555 47.6501C180.351 47.8788 180.804 47.5756 180.823 47.5625C180.849 47.5444 180.881 47.5372 180.912 47.5427C180.944 47.5481 180.971 47.5657 180.989 47.5915C181.007 47.6174 181.015 47.6494 181.009 47.6805C181.004 47.7116 180.986 47.7392 180.96 47.7574C180.639 47.9461 180.262 48.0178 179.894 47.9601Z" fill="#0C0C0C"/>
<path d="M190.595 41.6971L190.636 41.5821C185.373 39.6928 186.66 34.528 186.674 34.476L186.556 34.445C186.541 34.498 185.225 39.7693 190.595 41.6971Z" fill="#0C0C0C"/>
<path opacity="0.1" d="M184.289 44.3913C184.337 43.9456 183.884 43.5313 183.276 43.4659C182.669 43.4006 182.137 43.7089 182.089 44.1546C182.041 44.6003 182.495 45.0145 183.102 45.0799C183.71 45.1453 184.242 44.837 184.289 44.3913Z" fill="#0C0C0C"/>
<path opacity="0.1" d="M176.671 43.3753C176.622 43.8203 176.091 44.1283 175.483 44.0636C175.378 44.0524 175.275 44.0303 175.174 43.9975C175.14 43.4678 175.133 42.9577 175.142 42.4861C175.31 42.442 175.485 42.4297 175.657 42.4499C176.264 42.5144 176.719 42.9286 176.671 43.3753Z" fill="#0C0C0C"/>
<path d="M164.92 73.2134C165.197 76.4702 166.545 96.7125 166.812 100.725L202.079 100.8C202.287 97.1813 204.683 81.3615 205.47 74.2864C206.222 67.5353 207.696 64.1552 206.614 62.1592C204.849 58.8972 200.026 57.0123 196.736 56.5668C194.728 56.295 191.707 56.1002 191.707 56.1002C191.707 56.1002 191.452 61.2739 185.353 61.5619C177.051 61.9535 177.606 56.1002 177.564 56.1002C176.22 56.1002 168.537 56.9513 166.657 58.0656C161.536 61.0978 164.331 66.3119 164.92 73.2134Z" fill="#FF9800"/>
<path d="M142.028 75.4885L145.427 92.0113C145.497 92.3468 145.678 92.6485 145.943 92.8661C146.208 93.0836 146.539 93.2039 146.881 93.2068L170.289 93.406C170.512 93.408 170.733 93.3599 170.936 93.2654C171.138 93.1709 171.317 93.0323 171.459 92.8598C171.6 92.6873 171.702 92.4853 171.755 92.2685C171.809 92.0518 171.814 91.8257 171.769 91.607L168.369 75.0842C168.3 74.7487 168.118 74.4471 167.853 74.2295C167.589 74.012 167.258 73.8918 166.915 73.8889L143.507 73.6894C143.284 73.6875 143.063 73.7356 142.861 73.8301C142.659 73.9246 142.48 74.0632 142.338 74.2356C142.196 74.4081 142.095 74.6102 142.041 74.8269C141.987 75.0437 141.983 75.2697 142.028 75.4885Z" fill="#292A2E"/>
<path d="M163.855 87.2249C163.843 87.4425 163.91 87.6571 164.043 87.8295C164.176 88.0018 164.367 88.1202 164.581 88.1628L165.302 88.3217C165.289 88.3259 165.277 88.3333 165.268 88.3431C165.258 88.3529 165.251 88.3648 165.248 88.3778C165.246 88.3931 165.249 88.4086 165.258 88.4217C165.084 88.4704 164.931 88.5718 164.818 88.7119C164.705 88.852 164.638 89.0238 164.627 89.2034C164.626 89.4128 164.696 89.6163 164.825 89.7812C164.954 89.9461 165.135 90.0627 165.338 90.1122L171.423 91.4639C171.734 91.5334 172.052 91.5683 172.371 91.5679C173.081 91.5678 173.781 91.395 174.409 91.0643C175.038 90.7337 175.576 90.2551 175.979 89.6699C176.405 89.0507 176.574 88.2895 176.448 87.5482C176.322 86.8069 175.912 86.1439 175.305 85.7004L170.128 81.9156C170.015 81.8322 169.882 81.7777 169.743 81.7567L170.219 84.07L170.092 84.0407L170.065 84.0359L166.095 83.2286C165.653 83.1309 165.047 83.291 164.969 83.7953C164.927 83.9879 164.952 84.189 165.039 84.366C165.125 84.5429 165.27 84.6853 165.448 84.77C165.445 84.7723 165.44 84.7748 165.44 84.7798C165.44 84.7847 165.443 84.787 165.443 84.7918L164.756 84.6404C164.631 84.6127 164.501 84.6131 164.375 84.6416C164.25 84.6702 164.133 84.7261 164.032 84.8055C163.93 84.8849 163.848 84.9857 163.791 85.1006C163.733 85.2156 163.702 85.3419 163.699 85.4704C163.699 85.6757 163.77 85.8747 163.9 86.0336C164.03 86.1925 164.211 86.3016 164.412 86.3423L164.708 86.4083C164.71 86.418 164.708 86.4278 164.713 86.4353C164.497 86.4369 164.29 86.5186 164.132 86.6646C163.973 86.8105 163.875 87.0103 163.855 87.2249Z" fill="#E98862"/>
<g opacity="0.25">
<path d="M169.395 85.5937C169.39 85.6141 169.378 85.6319 169.36 85.6432C169.342 85.6546 169.321 85.6586 169.301 85.6544L165.502 84.8754C165.492 84.8735 165.482 84.8696 165.473 84.8637C165.464 84.8579 165.456 84.8503 165.45 84.8415C165.444 84.8326 165.44 84.8226 165.438 84.8121C165.436 84.8016 165.436 84.7907 165.438 84.7802C165.44 84.7697 165.444 84.7598 165.45 84.7509C165.456 84.7421 165.464 84.7346 165.473 84.7288C165.482 84.723 165.492 84.7191 165.503 84.7173C165.513 84.7154 165.524 84.7158 165.535 84.7182L169.333 85.4972C169.343 85.4993 169.353 85.5034 169.362 85.5093C169.37 85.5152 169.378 85.5228 169.384 85.5316C169.389 85.5404 169.393 85.5502 169.395 85.5605C169.397 85.5709 169.397 85.5815 169.395 85.5918L169.395 85.5937Z" fill="#0C0C0C"/>
</g>
<g opacity="0.25">
<path d="M169.098 87.2783C169.093 87.2987 169.08 87.3164 169.063 87.3277C169.045 87.339 169.024 87.343 169.003 87.3389L164.764 86.4696C164.754 86.4675 164.744 86.4634 164.736 86.4575C164.727 86.4516 164.719 86.444 164.714 86.4352C164.708 86.4264 164.704 86.4166 164.702 86.4063C164.7 86.3959 164.7 86.3853 164.702 86.375C164.707 86.3545 164.72 86.3367 164.737 86.3251C164.755 86.3135 164.776 86.309 164.797 86.3126L169.036 87.1819C169.056 87.1862 169.075 87.1986 169.086 87.2164C169.098 87.2342 169.102 87.2558 169.098 87.2767L169.098 87.2783Z" fill="#0C0C0C"/>
</g>
<g opacity="0.25">
<path d="M168.786 89.1046C168.781 89.1251 168.769 89.1428 168.751 89.1542C168.734 89.1655 168.712 89.1695 168.692 89.1654L165.311 88.472C165.29 88.4675 165.272 88.455 165.261 88.4373C165.249 88.4196 165.245 88.3981 165.249 88.3774C165.254 88.3568 165.266 88.3386 165.283 88.3269C165.301 88.3152 165.322 88.3108 165.343 88.3148L168.724 89.0081C168.745 89.0124 168.763 89.0248 168.775 89.0426C168.786 89.0603 168.791 89.0819 168.786 89.1028L168.786 89.1046Z" fill="#0C0C0C"/>
</g>
<path d="M171.8 93.8706L204.812 99.8365C205.843 99.9486 206.885 99.8205 207.857 99.4622C208.829 99.1039 209.705 98.5252 210.417 97.7714C211.128 97.0177 211.654 96.1094 211.955 95.1178C212.257 94.1263 212.324 93.0785 212.152 92.0566L207.53 64.5855C207.386 63.7148 207.072 62.8812 206.606 62.1322C206.139 61.3832 205.529 60.7337 204.811 60.2209C204.093 59.708 203.281 59.3419 202.421 59.1435C201.561 58.9451 200.671 58.9183 199.801 59.0647C198.93 59.2111 198.098 59.5277 197.35 59.9965C196.603 60.4653 195.955 61.077 195.444 61.7966C194.933 62.5162 194.57 63.3295 194.374 64.1899C194.178 65.0503 194.154 65.9409 194.303 66.8106L197.455 85.722L173.251 82.6823L171.8 93.8706Z" fill="#FF9800"/>
<path d="M204.813 99.9588C204.843 99.9584 204.872 99.9467 204.894 99.926C204.916 99.9054 204.93 99.8772 204.933 99.8469C204.935 99.8167 204.927 99.7866 204.908 99.7624C204.89 99.7383 204.863 99.7218 204.833 99.7163L171.935 93.7712L173.356 82.8187L197.437 85.8433C197.456 85.8459 197.475 85.8439 197.493 85.8375C197.511 85.8312 197.528 85.8206 197.541 85.8067C197.554 85.793 197.564 85.7765 197.569 85.7585C197.575 85.7404 197.576 85.7213 197.573 85.7027L195.571 73.6168C195.569 73.6009 195.563 73.5857 195.555 73.572C195.546 73.5583 195.535 73.5464 195.522 73.5371C195.509 73.5277 195.494 73.521 195.479 73.5175C195.463 73.514 195.447 73.5136 195.431 73.5164C195.399 73.5217 195.371 73.5396 195.352 73.5659C195.333 73.5923 195.325 73.625 195.331 73.657L197.306 85.5812L173.266 82.5623C173.234 82.5585 173.202 82.5675 173.177 82.5872C173.151 82.6069 173.134 82.6358 173.13 82.6678L171.679 93.8558C171.675 93.8869 171.683 93.9184 171.701 93.9437C171.72 93.969 171.747 93.9862 171.778 93.9919L204.791 99.9567C204.798 99.958 204.805 99.9587 204.813 99.9588Z" fill="#0C0C0C"/>
<path d="M197.475 85.6024L197.436 85.8439L199.559 86.1839L199.598 85.9424L197.475 85.6024Z" fill="#0C0C0C"/>
<path d="M226.907 188.131H0.14557C0.106962 188.131 0.0699361 188.116 0.0426365 188.088C0.0153368 188.061 0 188.024 0 187.985C0 187.947 0.0153368 187.91 0.0426365 187.882C0.0699361 187.855 0.106962 187.84 0.14557 187.84H226.906C226.945 187.84 226.982 187.855 227.009 187.882C227.036 187.91 227.052 187.947 227.052 187.985C227.052 188.024 227.036 188.061 227.009 188.088C226.982 188.116 226.945 188.131 226.906 188.131H226.907Z" fill="#292A2E"/>
<g opacity="0.65">
<path d="M226.907 188.131H0.14557C0.106962 188.131 0.0699361 188.116 0.0426365 188.088C0.0153368 188.061 0 188.024 0 187.985C0 187.947 0.0153368 187.91 0.0426365 187.882C0.0699361 187.855 0.106962 187.84 0.14557 187.84H226.906C226.945 187.84 226.982 187.855 227.009 187.882C227.036 187.91 227.052 187.947 227.052 187.985C227.052 188.024 227.036 188.061 227.009 188.088C226.982 188.116 226.945 188.131 226.906 188.131H226.907Z" fill="#292A2E"/>
</g>
<path d="M14.0902 188.254L13.6818 188.175L20.0652 124.742L20.4736 124.821L14.0902 188.254Z" fill="#494949"/>
<path d="M37.8593 188.254L37.4508 188.175L43.8341 124.742L44.2425 124.821L37.8593 188.254Z" fill="#494949"/>
<path d="M90.3992 188.254L90.8077 188.175L84.4242 124.742L84.0158 124.821L90.3992 188.254Z" fill="#494949"/>
<path d="M66.6301 188.254L67.0386 188.175L60.6553 124.742L60.2469 124.821L66.6301 188.254Z" fill="#494949"/>
<path d="M58.1646 96.825L57.7523 96.88L61.4814 124.81L61.8937 124.755L58.1646 96.825Z" fill="#494949"/>
<path d="M15.3619 96.8247L14.9496 96.8797L18.6787 124.809L19.091 124.754L15.3619 96.8247Z" fill="#494949"/>
<path d="M61.8581 122.736H19.9922C18.8626 122.736 17.9469 123.652 17.9469 124.781V124.782C17.9469 125.911 18.8626 126.827 19.9922 126.827H61.8581C62.9877 126.827 63.9034 125.911 63.9034 124.782V124.781C63.9034 123.652 62.9877 122.736 61.8581 122.736Z" fill="#292A2E"/>
<path opacity="0.8" d="M61.8581 122.736H19.9922C18.8626 122.736 17.9469 123.652 17.9469 124.781V124.782C17.9469 125.911 18.8626 126.827 19.9922 126.827H61.8581C62.9877 126.827 63.9034 125.911 63.9034 124.782V124.781C63.9034 123.652 62.9877 122.736 61.8581 122.736Z" fill="white"/>
<path d="M61.8581 127.035H19.9922C19.6963 127.035 19.4033 126.976 19.1299 126.863C18.8566 126.75 18.6082 126.584 18.3989 126.375C18.1897 126.165 18.0237 125.917 17.9105 125.644C17.7973 125.37 17.739 125.077 17.739 124.781C17.739 124.485 17.7973 124.192 17.9105 123.919C18.0237 123.646 18.1897 123.397 18.3989 123.188C18.6082 122.979 18.8566 122.813 19.1299 122.7C19.4033 122.586 19.6963 122.528 19.9922 122.528H61.8581C62.4557 122.528 63.0288 122.766 63.4514 123.188C63.874 123.611 64.1113 124.184 64.1113 124.781C64.1113 125.379 63.874 125.952 63.4514 126.375C63.0288 126.797 62.4557 127.035 61.8581 127.035ZM19.9922 122.944C19.7509 122.944 19.512 122.992 19.2891 123.084C19.0662 123.176 18.8636 123.312 18.693 123.482C18.5224 123.653 18.3871 123.856 18.2948 124.078C18.2024 124.301 18.1549 124.54 18.1549 124.782C18.1549 125.023 18.2024 125.262 18.2948 125.485C18.3871 125.708 18.5224 125.91 18.693 126.081C18.8636 126.251 19.0662 126.387 19.2891 126.479C19.512 126.571 19.7509 126.619 19.9922 126.619H61.8581C62.3454 126.619 62.8127 126.425 63.1573 126.081C63.5019 125.736 63.6954 125.269 63.6954 124.782C63.6954 124.294 63.5019 123.827 63.1573 123.482C62.8127 123.138 62.3454 122.944 61.8581 122.944H19.9922Z" fill="#292A2E"/>
<path d="M84.8364 122.736H42.9704C41.8409 122.736 40.9252 123.652 40.9252 124.781V124.782C40.9252 125.911 41.8409 126.827 42.9704 126.827H84.8364C85.9659 126.827 86.8816 125.911 86.8816 124.782V124.781C86.8816 123.652 85.9659 122.736 84.8364 122.736Z" fill="white"/>
<path d="M84.8364 127.035H42.9704C42.6745 127.035 42.3815 126.976 42.1082 126.863C41.8348 126.75 41.5864 126.584 41.3772 126.375C41.1679 126.165 41.002 125.917 40.8887 125.644C40.7755 125.37 40.7172 125.077 40.7172 124.781C40.7172 124.485 40.7755 124.192 40.8887 123.919C41.002 123.646 41.1679 123.397 41.3772 123.188C41.5864 122.979 41.8348 122.813 42.1082 122.7C42.3815 122.586 42.6745 122.528 42.9704 122.528H84.8364C85.1323 122.528 85.4253 122.586 85.6986 122.7C85.972 122.813 86.2204 122.979 86.4296 123.188C86.6389 123.397 86.8048 123.646 86.9181 123.919C87.0313 124.192 87.0896 124.485 87.0896 124.781C87.0896 125.077 87.0313 125.37 86.9181 125.644C86.8048 125.917 86.6389 126.165 86.4296 126.375C86.2204 126.584 85.972 126.75 85.6986 126.863C85.4253 126.976 85.1323 127.035 84.8364 127.035ZM42.9704 122.944C42.7292 122.944 42.4902 122.992 42.2673 123.084C42.0444 123.176 41.8419 123.312 41.6713 123.482C41.5007 123.653 41.3653 123.856 41.273 124.078C41.1807 124.301 41.1331 124.54 41.1331 124.782C41.1331 125.023 41.1807 125.262 41.273 125.485C41.3653 125.708 41.5007 125.91 41.6713 126.081C41.8419 126.251 42.0444 126.387 42.2673 126.479C42.4902 126.571 42.7292 126.619 42.9704 126.619H84.8364C85.0777 126.619 85.3166 126.571 85.5395 126.479C85.7624 126.387 85.9649 126.251 86.1355 126.081C86.3062 125.91 86.4415 125.708 86.5338 125.485C86.6262 125.262 86.6737 125.023 86.6737 124.782C86.6737 124.54 86.6262 124.301 86.5338 124.078C86.4415 123.856 86.3062 123.653 86.1355 123.482C85.9649 123.312 85.7624 123.176 85.5395 123.084C85.3166 122.992 85.0777 122.944 84.8364 122.944H42.9704Z" fill="#292A2E"/>
<path d="M55.8713 96.8519H15.2683C14.6044 96.8519 13.9633 96.6103 13.4645 96.1722C12.9657 95.7341 12.6433 95.1295 12.5575 94.4712L9.87178 73.8456C9.82159 73.4601 9.85421 73.0683 9.96747 72.6963C10.0807 72.3244 10.272 71.9809 10.5286 71.6888C10.7851 71.3967 11.101 71.1627 11.4552 71.0023C11.8094 70.842 12.1937 70.7591 12.5825 70.7591H53.1855C53.8494 70.7591 54.4905 71.0006 54.9893 71.4387C55.4881 71.8767 55.8105 72.4813 55.8962 73.1396L58.5818 93.7648C58.6321 94.1503 58.5996 94.5422 58.4864 94.9142C58.3732 95.2862 58.182 95.6298 57.9254 95.9219C57.6689 96.2141 57.3529 96.4482 56.9987 96.6086C56.6445 96.769 56.2601 96.8519 55.8713 96.8519Z" fill="#292A2E"/>
<path opacity="0.8" d="M55.8713 96.8519H15.2683C14.6044 96.8519 13.9633 96.6103 13.4645 96.1722C12.9657 95.7341 12.6433 95.1295 12.5575 94.4712L9.87178 73.8456C9.82159 73.4601 9.85421 73.0683 9.96747 72.6963C10.0807 72.3244 10.272 71.9809 10.5286 71.6888C10.7851 71.3967 11.101 71.1627 11.4552 71.0023C11.8094 70.842 12.1937 70.7591 12.5825 70.7591H53.1855C53.8494 70.7591 54.4905 71.0006 54.9893 71.4387C55.4881 71.8767 55.8105 72.4813 55.8962 73.1396L58.5818 93.7648C58.6321 94.1503 58.5996 94.5422 58.4864 94.9142C58.3732 95.2862 58.182 95.6298 57.9254 95.9219C57.6689 96.2141 57.3529 96.4482 56.9987 96.6086C56.6445 96.769 56.2601 96.8519 55.8713 96.8519Z" fill="white"/>
<path d="M55.8712 97.0598H15.2682C14.5543 97.0582 13.8652 96.7977 13.3288 96.3266C12.7923 95.8555 12.445 95.2058 12.3512 94.498L9.66566 73.873C9.61159 73.4582 9.64664 73.0365 9.76848 72.6363C9.89033 72.2361 10.0962 71.8664 10.3722 71.552C10.6483 71.2377 10.9882 70.9858 11.3694 70.8133C11.7505 70.6408 12.1641 70.5515 12.5825 70.5515H53.1855C53.8994 70.5531 54.5885 70.8136 55.1249 71.2848C55.6613 71.7559 56.0086 72.4056 56.1023 73.1134L58.7881 93.7386C58.8421 94.1534 58.807 94.575 58.6852 94.9752C58.5633 95.3755 58.3575 95.7451 58.0814 96.0594C57.8054 96.3738 57.4654 96.6256 57.0843 96.7981C56.7032 96.9706 56.2896 97.0599 55.8712 97.0598ZM12.5825 70.9675C12.2233 70.9675 11.8682 71.0441 11.541 71.1922C11.2137 71.3404 10.9219 71.5566 10.6848 71.8265C10.4478 72.0964 10.2711 72.4137 10.1664 72.7574C10.0618 73.101 10.0317 73.463 10.078 73.8192L12.7638 94.4444C12.8443 95.052 13.1424 95.6099 13.603 96.0144C14.0636 96.4189 14.6553 96.6426 15.2682 96.6439H55.8712C56.2304 96.6439 56.5855 96.5673 56.9128 96.4192C57.24 96.271 57.5319 96.0548 57.7689 95.7849C58.0059 95.515 58.1826 95.1976 58.2873 94.854C58.3919 94.5104 58.4221 94.1484 58.3757 93.7922L55.6909 73.167C55.6105 72.5594 55.3123 72.0015 54.8517 71.597C54.3911 71.1925 53.7995 70.9688 53.1865 70.9675H12.5825Z" fill="#292A2E"/>
<path d="M58.1671 96.8519H17.5641C16.9002 96.8518 16.2591 96.6102 15.7603 96.1722C15.2616 95.7341 14.9393 95.1295 14.8536 94.4712L12.1678 73.8456C12.1176 73.4601 12.1502 73.0683 12.2635 72.6963C12.3768 72.3244 12.568 71.9809 12.8246 71.6888C13.0811 71.3967 13.3971 71.1627 13.7512 71.0023C14.1054 70.842 14.4897 70.7591 14.8785 70.7591H55.4815C56.1454 70.7591 56.7865 71.0007 57.2853 71.4387C57.784 71.8767 58.1063 72.4813 58.192 73.1396L60.8778 93.7648C60.9281 94.1504 60.8955 94.5422 60.7823 94.9142C60.6691 95.2862 60.4778 95.6298 60.2213 95.922C59.9647 96.2141 59.6488 96.4482 59.2945 96.6086C58.9403 96.769 58.5559 96.8519 58.1671 96.8519Z" fill="white"/>
<path d="M58.1671 97.0598H17.5641C16.8502 97.0582 16.1611 96.7977 15.6247 96.3266C15.0883 95.8554 14.741 95.2058 14.6473 94.498L11.9615 73.873C11.9075 73.4582 11.9426 73.0365 12.0645 72.6363C12.1864 72.2361 12.3922 71.8665 12.6683 71.5521C12.9444 71.2378 13.2843 70.9859 13.6655 70.8134C14.0466 70.6408 14.4602 70.5516 14.8785 70.5515H55.4813C56.1953 70.5532 56.8844 70.8137 57.4208 71.2848C57.9573 71.7559 58.3046 72.4056 58.3984 73.1134L61.0841 93.7386C61.1381 94.1534 61.103 94.575 60.9811 94.9752C60.8592 95.3754 60.6533 95.745 60.3773 96.0593C60.1012 96.3737 59.7612 96.6255 59.3801 96.798C58.999 96.9706 58.5855 97.0598 58.1671 97.0598ZM14.8785 70.9675C14.5193 70.9674 14.1641 71.044 13.8368 71.1921C13.5095 71.3402 13.2176 71.5565 12.9805 71.8264C12.7434 72.0963 12.5666 72.4137 12.4619 72.7574C12.3573 73.1011 12.3271 73.4631 12.3735 73.8194L15.0591 94.4444C15.1396 95.0521 15.4379 95.61 15.8986 96.0145C16.3593 96.419 16.951 96.6426 17.5641 96.6439H58.1671C58.5263 96.6439 58.8814 96.5673 59.2086 96.4192C59.5358 96.271 59.8277 96.0548 60.0648 95.7849C60.3018 95.515 60.4785 95.1976 60.5831 94.854C60.6878 94.5104 60.7179 94.1484 60.6715 93.7922L57.9858 73.167C57.9053 72.5593 57.6071 72.0015 57.1466 71.597C56.686 71.1925 56.0943 70.9688 55.4813 70.9675H14.8785Z" fill="#292A2E"/>
<path d="M53.6916 38.9379C53.6916 38.9379 56.3898 36.9014 57.0584 32.2136C57.576 28.5839 54.2279 30.9355 54.2279 30.9355C54.2279 30.9355 54.5752 28.3184 52.6682 28.5781C50.7612 28.8378 49.6944 31.587 49.6944 31.587" fill="#0C0C0C"/>
<path d="M42.8131 28.8852C42.8131 28.8852 33.3523 29.8996 36.7724 42.7198L37.6094 42.7757L39.3089 42.8897" fill="#0C0C0C"/>
<path d="M52.1069 56.1068C52.0653 56.1014 51.6039 63.7597 42.7062 63.0928C36.5465 62.6313 34.3501 56.096 34.2091 56.096C34.8731 55.9548 35.6939 55.7406 36.02 55.667C36.7309 55.502 37.3747 55.1245 37.8658 54.5847C38.3569 54.0449 38.672 53.3683 38.7692 52.645C38.9493 51.5594 38.6444 46.0053 38.7378 44.9071L48.1929 47.0191C48.0607 49.3389 47.1361 54.7169 50.3765 55.6687C50.9164 55.8251 51.4972 55.97 52.1069 56.1068Z" fill="#E98862"/>
<path opacity="0.52" d="M48.3254 53.4697C48.1773 52.9924 48.082 52.5004 48.0412 52.0023C47.9374 50.8657 47.9583 49.7212 48.1035 48.5891C46.1818 48.3298 44.3713 47.5366 42.8778 46.2997C42.7021 46.9482 41.7365 49.7812 42.0044 50.3975C42.5087 51.5623 44.8833 53.4697 48.3254 53.4697Z" fill="#0C0C0C"/>
<path d="M46.3744 51.9539C42.6443 51.6195 38.1796 49.2625 38.1152 44.1992L38.0561 39.6304C37.9916 34.5668 40.599 30.4283 45.3664 30.3678C50.1338 30.307 53.7496 34.3666 53.8141 39.4299L53.8396 41.4527C53.8364 42.1473 53.7858 42.8408 53.6882 43.5285C53.4437 45.3482 53.0644 48.1146 51.8295 49.9862C50.6641 51.753 48.7572 52.1677 46.3744 51.9539Z" fill="#E98862"/>
<path d="M48.1046 47.3256C48.8744 47.3605 49.6417 47.214 50.3445 46.8979C50.359 46.8917 50.3722 46.8827 50.3832 46.8714C50.3943 46.8601 50.403 46.8467 50.4089 46.8321C50.4148 46.8174 50.4177 46.8018 50.4176 46.786C50.4174 46.7702 50.4141 46.7546 50.4079 46.74C50.4017 46.7255 50.3927 46.7123 50.3814 46.7013C50.3701 46.6902 50.3568 46.6815 50.3421 46.6756C50.3275 46.6697 50.3118 46.6668 50.296 46.667C50.2802 46.6671 50.2646 46.6704 50.2501 46.6766C48.7359 47.3213 47.3611 47.2277 46.2744 46.4033C46.2525 46.386 46.2297 46.3697 46.2061 46.3547C46.1788 46.3418 46.1476 46.3397 46.1188 46.3488C46.09 46.3578 46.0656 46.3774 46.0506 46.4035C46.0355 46.4297 46.0308 46.4606 46.0374 46.4901C46.0441 46.5195 46.0615 46.5454 46.0864 46.5626C46.0951 46.5683 46.1092 46.5793 46.128 46.5943C46.6993 47.0295 47.3876 47.2842 48.1046 47.3256Z" fill="#0C0C0C"/>
<path d="M48.0688 48.4665C48.2079 48.4749 48.3475 48.4716 48.486 48.4565C48.5171 48.4523 48.5453 48.4361 48.5646 48.4115C48.584 48.3868 48.5929 48.3555 48.5896 48.3244C48.5863 48.2932 48.5709 48.2645 48.5468 48.2445C48.5227 48.2245 48.4917 48.2146 48.4604 48.2171C47.6273 48.3057 47.2295 47.9239 47.2127 47.9077C47.1899 47.8861 47.1597 47.8743 47.1283 47.8746C47.097 47.875 47.067 47.8876 47.0448 47.9097C47.0226 47.9319 47.0099 47.9618 47.0094 47.9931C47.0089 48.0245 47.0207 48.0548 47.0421 48.0776C47.3292 48.3219 47.692 48.4593 48.0688 48.4665Z" fill="#0C0C0C"/>
<path d="M52.2403 42.4264C52.5646 42.4264 52.8275 42.1634 52.8275 41.8391C52.8275 41.5148 52.5646 41.2518 52.2403 41.2518C51.9159 41.2518 51.653 41.5148 51.653 41.8391C51.653 42.1634 51.9159 42.4264 52.2403 42.4264Z" fill="#0C0C0C"/>
<path d="M46.5029 42.0662C46.8273 42.0662 47.0902 41.8032 47.0902 41.4789C47.0902 41.1546 46.8273 40.8916 46.5029 40.8916C46.1786 40.8916 45.9156 41.1546 45.9156 41.4789C45.9156 41.8032 46.1786 42.0662 46.5029 42.0662Z" fill="#0C0C0C"/>
<path d="M38.4304 45.7379C36.9818 45.7564 35.7875 44.2212 35.7686 42.7726C35.7496 41.324 36.9146 40.5098 38.3635 40.4913L39.1223 41.4527L39.6757 45.7221L38.4304 45.7379Z" fill="#E98862"/>
<path d="M39.872 43.4098C39.872 43.4098 40.3611 36.2451 42.5338 35.8027C43.9808 35.5081 47.4897 37.5604 50.7398 36.9407C52.1616 36.6703 53.5115 37.0214 53.6487 37.6931C53.7032 37.959 54.5889 34.137 52.3623 31.237C50.5895 28.9287 44.7881 28.2757 42.1487 29.0327C34.8403 31.1291 38.0653 40.8066 38.0653 40.8066L38.3911 43.2767L39.872 43.4098Z" fill="#0C0C0C"/>
<path d="M48.9805 45.6349H48.9896C49.4565 45.6302 50.2392 45.5703 50.2361 45.2209C50.233 44.9316 49.4093 41.8156 49.3153 41.4612C49.3072 41.4307 49.2873 41.4047 49.2601 41.3888C49.2328 41.373 49.2003 41.3686 49.1698 41.3767C49.1393 41.3848 49.1133 41.4047 49.0974 41.4319C49.0816 41.4592 49.0772 41.4917 49.0853 41.5222C49.4513 42.9022 49.9961 45.0267 49.9982 45.2238C49.9531 45.307 49.4708 45.3925 48.9876 45.3975C48.9566 45.3974 48.9269 45.4095 48.9047 45.431C48.8825 45.4526 48.8695 45.4819 48.8686 45.5129C48.8677 45.5438 48.8789 45.5739 48.8997 45.5967C48.9206 45.6195 48.9496 45.6333 48.9805 45.6352V45.6349Z" fill="#0C0C0C"/>
<path d="M50.5734 38.6549C51.0641 38.52 51.5821 38.52 52.0728 38.6549C52.3138 38.7198 52.5437 38.8205 52.7549 38.9535C52.9636 39.0839 53.155 39.2401 53.3245 39.4185C53.3558 39.4502 53.3736 39.4929 53.3742 39.5374C53.3749 39.582 53.3583 39.6251 53.328 39.6578C53.2977 39.6905 53.2559 39.7102 53.2114 39.7129C53.1669 39.7156 53.1231 39.701 53.0891 39.6722L53.0787 39.663C52.9217 39.5177 52.747 39.3927 52.5588 39.291C52.3741 39.1899 52.1752 39.1173 51.9688 39.0758C51.5625 38.9906 51.141 39.0142 50.7467 39.144L50.7302 39.1498C50.698 39.1612 50.6639 39.1661 50.6298 39.1643C50.5957 39.1625 50.5622 39.154 50.5314 39.1393C50.5006 39.1245 50.4729 39.1039 50.4501 39.0785C50.4272 39.0531 50.4096 39.0234 50.3982 38.9912C50.3869 38.959 50.3819 38.9249 50.3837 38.8908C50.3855 38.8566 50.394 38.8232 50.4088 38.7924C50.4235 38.7615 50.4441 38.7339 50.4695 38.7111C50.4949 38.6882 50.5246 38.6706 50.5568 38.6592C50.5624 38.658 50.5682 38.6563 50.5734 38.6549Z" fill="#0C0C0C"/>
<path d="M47.0989 38.9504C46.7255 38.769 46.3107 38.6894 45.8967 38.7197C45.6866 38.7334 45.4799 38.7788 45.2834 38.8545C45.0836 38.9304 44.894 39.0311 44.7192 39.1542L44.708 39.1614C44.6705 39.1868 44.6246 39.1965 44.5801 39.1884C44.5355 39.1803 44.496 39.155 44.4698 39.1181C44.4437 39.0812 44.433 39.0354 44.4402 38.9907C44.4474 38.9461 44.4718 38.906 44.5082 38.879C44.7 38.7248 44.9105 38.5954 45.1347 38.4939C45.3618 38.3902 45.603 38.3211 45.8505 38.2889C46.3548 38.2204 46.8682 38.2892 47.3366 38.4881C47.4 38.5157 47.4499 38.5673 47.4752 38.6317C47.5006 38.696 47.4993 38.7678 47.4718 38.8312C47.4442 38.8946 47.3925 38.9445 47.3282 38.9699C47.2638 38.9952 47.1921 38.994 47.1286 38.9664C47.1236 38.9643 47.1189 38.962 47.1141 38.9595L47.0989 38.9504Z" fill="#0C0C0C"/>
<path d="M49.8751 33.7224C50.9475 33.4983 51.5496 32.0371 51.2198 30.4587C50.89 28.8802 49.7533 27.7823 48.6809 28.0064C47.6085 28.2304 47.0064 29.6916 47.3362 31.2701C47.666 32.8485 48.8027 33.9464 49.8751 33.7224Z" fill="#0C0C0C"/>
<path d="M109.687 177.266C109.687 177.266 110.802 183.046 116.213 183.368C121.625 183.69 120.451 188.001 120.451 188.001H99.7712V177.669L109.687 177.266Z" fill="#FF4165"/>
<path d="M70.3438 173.617C70.3438 173.617 68.7922 179.295 73.5066 181.973C78.221 184.651 75.2645 188.001 75.2645 188.001L56.708 178.872L61.2687 169.601L70.3438 173.617Z" fill="#FF4165"/>
<path d="M58.8504 172.013L74.499 122.646H46.1336C40.4356 122.646 38.0605 117.814 38.0605 112.116C38.0605 106.419 43.6618 101.424 49.3595 101.424H87.6423C91.1175 101.424 95.0142 103.549 96.9215 106.454C98.8289 109.359 98.3134 113.861 96.9315 117.05L71.8727 177.912" fill="#262626"/>
<path opacity="0.8" d="M58.8504 172.013L74.499 122.646H46.1336C40.4356 122.646 38.0605 117.814 38.0605 112.116C38.0605 106.419 43.6618 101.424 49.3595 101.424H87.6423C91.1175 101.424 95.0142 103.549 96.9215 106.454C98.8289 109.359 98.3134 113.861 96.9315 117.05L71.8727 177.912" fill="#0A0A0A"/>
<path d="M98.5821 182.633L72.4171 122.646L38.0607 122.643C30.0103 122.012 26.3236 117.6 26.4407 111.904C26.5563 106.28 29.4041 100.725 35.0031 100.725H81.3085C85.4511 100.81 88.7102 105.388 90.247 109.235L111.999 178.961" fill="#262626"/>
<path d="M24.097 100.794C24.097 100.794 22.5712 110.744 24.9898 116.275C28.0091 123.182 39.3278 122.644 39.3278 122.644L38.69 100.725L24.097 100.794Z" fill="#262626"/>
<path d="M91.2308 100.598L66.9622 95.569C65.9509 95.3594 65.0088 94.8983 64.2231 94.2281C63.4373 93.5579 62.8332 92.7004 62.4668 91.7349L52.9215 66.5816C52.6354 65.8277 52.5006 65.0247 52.5248 64.2186C52.549 63.4126 52.7317 62.6192 53.0625 61.8837C53.3933 61.1482 53.8658 60.4852 54.4529 59.9323C55.04 59.3794 55.7302 58.9476 56.4842 58.6615C57.2381 58.3753 58.0411 58.2405 58.8471 58.2647C59.6532 58.2889 60.4466 58.4716 61.1821 58.8025C61.9175 59.1333 62.5806 59.6057 63.1335 60.1928C63.6864 60.7799 64.1182 61.4701 64.4043 62.2241L72.7542 84.226L93.7234 88.571C93.7234 88.571 91.6519 100.685 91.2308 100.598Z" fill="#FF4165"/>
<path d="M63.1618 72.9692C62.8814 76.2616 60.895 96.8032 60.6247 100.859H24.1128C23.903 97.2008 23.2219 81.6712 22.4265 74.5185C21.667 67.6931 21.3917 63.7981 22.2664 61.6769C23.809 57.936 27.6693 56.5899 30.9943 56.1397C33.0248 55.8647 36.0787 55.6676 36.0787 55.6676C36.0787 55.6676 36.3372 60.8984 42.5027 61.1895C50.8958 61.5846 50.3354 55.6676 50.3768 55.6676C51.7366 55.6676 59.1378 56.6564 60.9884 57.8628C63.6022 59.5664 64.3748 61.8882 64.4053 64.0212C64.4405 66.4772 63.4801 69.2349 63.1618 72.9692Z" fill="#FF4165"/>
<path d="M61.7262 89.7543C61.7233 89.7545 61.7204 89.7545 61.7175 89.7543C61.6901 89.752 61.6646 89.7389 61.6468 89.7179C61.629 89.6969 61.6202 89.6696 61.6225 89.6422L62.5703 78.2555C62.5711 78.2418 62.5747 78.2283 62.5809 78.216C62.587 78.2037 62.5956 78.1928 62.6061 78.1839C62.6166 78.1751 62.6288 78.1684 62.642 78.1644C62.6551 78.1604 62.669 78.1591 62.6826 78.1607C62.7101 78.163 62.7354 78.1761 62.7532 78.1971C62.771 78.2181 62.7797 78.2453 62.7775 78.2727L61.8298 89.6594C61.8275 89.6853 61.8156 89.7094 61.7965 89.727C61.7773 89.7445 61.7522 89.7543 61.7262 89.7543Z" fill="#0C0C0C"/>
<path d="M79.1164 96.5875L87.128 71.9606C87.2688 71.5279 87.5429 71.1508 87.9111 70.8833C88.2793 70.6159 88.7227 70.4719 89.1778 70.4719H121.817C122.157 70.4719 122.493 70.5524 122.796 70.7069C123.099 70.8614 123.361 71.0855 123.561 71.3608C123.761 71.6361 123.893 71.9548 123.946 72.2908C123.999 72.6269 123.972 72.9707 123.867 73.2943L115.855 97.9212C115.715 98.3539 115.44 98.731 115.072 98.9984C114.704 99.2659 114.261 99.4099 113.806 99.4099H81.1656C80.8255 99.4098 80.4902 99.3292 80.1871 99.1746C79.8841 99.0201 79.6219 98.796 79.422 98.5208C79.2222 98.2455 79.0903 97.9268 79.0372 97.5908C78.9841 97.2548 79.0112 96.911 79.1164 96.5875Z" fill="#292A2E"/>
<path d="M79.1164 96.5875L87.128 71.9606C87.2688 71.5279 87.5429 71.1508 87.9111 70.8833C88.2793 70.6159 88.7227 70.4719 89.1778 70.4719H121.817C122.157 70.4719 122.493 70.5524 122.796 70.7069C123.099 70.8614 123.361 71.0855 123.561 71.3608C123.761 71.6361 123.893 71.9548 123.946 72.2908C123.999 72.6269 123.972 72.9707 123.867 73.2943L115.855 97.9212C115.715 98.3539 115.44 98.731 115.072 98.9984C114.704 99.2659 114.261 99.4099 113.806 99.4099H81.1656C80.8255 99.4098 80.4902 99.3292 80.1871 99.1746C79.8841 99.0201 79.6219 98.796 79.422 98.5208C79.2222 98.2455 79.0903 97.9268 79.0372 97.5908C78.9841 97.2548 79.0112 96.911 79.1164 96.5875Z" fill="#292A2E"/>
<path d="M85.6519 97.4131H63.8031C63.2587 97.4131 62.8174 97.8545 62.8174 98.3989V98.4242C62.8174 98.9686 63.2587 99.4099 63.8031 99.4099H85.6519C86.1963 99.4099 86.6376 98.9686 86.6376 98.4242V98.3989C86.6376 97.8545 86.1963 97.4131 85.6519 97.4131Z" fill="#292A2E"/>
<path d="M85.6519 97.4131H63.8031C63.2587 97.4131 62.8174 97.8545 62.8174 98.3989V98.4242C62.8174 98.9686 63.2587 99.4099 63.8031 99.4099H85.6519C86.1963 99.4099 86.6376 98.9686 86.6376 98.4242V98.3989C86.6376 97.8545 86.1963 97.4131 85.6519 97.4131Z" fill="#292A2E"/>
<path d="M101.492 89.5655C103.382 89.5655 104.915 88.0328 104.915 86.1423C104.915 84.2517 103.382 82.7191 101.492 82.7191C99.601 82.7191 98.0684 84.2517 98.0684 86.1423C98.0684 88.0328 99.601 89.5655 101.492 89.5655Z" fill="white"/>
<path d="M77.2903 90.8186L71.8373 88.9075L72.6202 88.8532C72.8726 88.8308 73.107 88.7133 73.276 88.5247C73.4451 88.336 73.5362 88.0902 73.5309 87.8369C73.5236 87.7063 73.4899 87.5785 73.4316 87.4614C73.3734 87.3443 73.2918 87.2402 73.1921 87.1557C73.0923 87.0711 72.9763 87.0077 72.8512 86.9694C72.7261 86.9311 72.5945 86.9187 72.4645 86.9329L62.8174 87.958L63.0669 91.0582C63.1448 92.0211 63.5084 92.9388 64.1112 93.6937C64.714 94.4486 65.5285 95.0063 66.4504 95.2953L70.628 96.5967C70.8438 96.6685 71.0778 96.6635 71.2903 96.5826C71.5028 96.5018 71.6809 96.35 71.7944 96.1529C71.8932 95.9729 71.9317 95.766 71.9045 95.5625C71.8773 95.3589 71.7858 95.1694 71.6433 95.0216C71.6525 95.0151 71.6603 95.0067 71.6661 94.997C71.672 94.9873 71.6758 94.9765 71.6774 94.9653C71.6789 94.9541 71.6782 94.9427 71.6752 94.9318C71.6722 94.9209 71.667 94.9107 71.6599 94.9019L72.4293 95.1433C72.6695 95.2239 72.9314 95.2104 73.1619 95.1054C73.3925 95.0004 73.5746 94.8118 73.6715 94.5777C73.7506 94.3653 73.7522 94.1318 73.6762 93.9183C73.6001 93.7049 73.4511 93.5251 73.2556 93.4106C73.2646 93.4057 73.2726 93.3992 73.2793 93.3915L73.5958 93.4909C73.8116 93.5626 74.0455 93.5577 74.2581 93.4768C74.4706 93.3959 74.6487 93.2441 74.7622 93.0471C74.882 92.8285 74.9125 92.5721 74.8473 92.3315C74.7822 92.0909 74.6264 91.8849 74.4126 91.7567C74.4144 91.7503 74.4154 91.7438 74.4157 91.7372L76.6864 92.5332C76.9138 92.6129 77.1635 92.599 77.3806 92.4946C77.5978 92.3902 77.7645 92.2038 77.8442 91.9764C77.9239 91.749 77.91 91.4993 77.8056 91.2822C77.7012 91.0651 77.5148 90.8983 77.2874 90.8186H77.2903Z" fill="#E98862"/>
<path opacity="0.2" d="M74.3292 91.826C74.3187 91.826 74.3082 91.8242 74.2983 91.8206L72.1016 91.0228C72.0791 91.0146 72.0607 90.9977 72.0507 90.9759C72.0406 90.9541 72.0396 90.9292 72.0478 90.9067C72.0561 90.8842 72.073 90.8658 72.0948 90.8558C72.1166 90.8457 72.1415 90.8447 72.164 90.8529L74.3604 91.6515C74.3804 91.6587 74.3972 91.6728 74.4079 91.6912C74.4186 91.7096 74.4224 91.7312 74.4187 91.7522C74.4151 91.7731 74.4041 91.7921 74.3878 91.8058C74.3715 91.8195 74.3509 91.827 74.3297 91.827L74.3292 91.826Z" fill="#0A0A0A"/>
<path opacity="0.2" d="M73.2187 93.4231C73.2085 93.4231 73.1983 93.4213 73.1886 93.4179L71.4571 92.8036C71.4459 92.7996 71.4356 92.7935 71.4268 92.7855C71.418 92.7776 71.4108 92.7679 71.4057 92.7572C71.4006 92.7465 71.3976 92.7349 71.397 92.723C71.3964 92.7111 71.3981 92.6992 71.4021 92.6881C71.4061 92.6769 71.4122 92.6666 71.4202 92.6577C71.4281 92.6489 71.4378 92.6417 71.4485 92.6366C71.4592 92.6315 71.4708 92.6286 71.4827 92.628C71.4946 92.6273 71.5064 92.6291 71.5176 92.633L73.2491 93.2474C73.2692 93.2545 73.2862 93.2685 73.2969 93.2869C73.3077 93.3053 73.3116 93.327 73.308 93.348C73.3044 93.3691 73.2934 93.3881 73.2771 93.4019C73.2607 93.4156 73.2401 93.4231 73.2187 93.4231Z" fill="#0A0A0A"/>
<path opacity="0.2" d="M71.5885 95.0435C71.5775 95.0435 71.5664 95.0415 71.5561 95.0375L70.7451 94.7282C70.7335 94.7244 70.7228 94.7182 70.7136 94.7101C70.7045 94.702 70.6971 94.6922 70.6919 94.6811C70.6866 94.6701 70.6837 94.6581 70.6832 94.6459C70.6827 94.6337 70.6847 94.6215 70.6891 94.6101C70.6934 94.5987 70.7001 94.5883 70.7086 94.5795C70.717 94.5707 70.7272 94.5637 70.7385 94.559C70.7497 94.5543 70.7618 94.5519 70.774 94.5519C70.7863 94.552 70.7983 94.5545 70.8095 94.5594L71.6206 94.8686C71.6403 94.8762 71.6567 94.8904 71.667 94.9088C71.6773 94.9272 71.6809 94.9487 71.6771 94.9694C71.6732 94.9902 71.6623 95.0089 71.6461 95.0225C71.6299 95.036 71.6094 95.0434 71.5883 95.0435H71.5885Z" fill="#0A0A0A"/>
<path d="M67.0869 86.1234L44.2117 86.108L35.5579 64.9976L22.6484 70.4253L33.4457 95.4798L33.5514 95.7293C34.0796 96.9471 34.9694 97.9732 36.1002 98.6685C37.2309 99.3638 38.5481 99.6947 39.8733 99.6164L67.4334 97.9881L67.0869 86.1234Z" fill="#FF4165"/>
<path d="M39.4939 99.7312C38.2115 99.729 36.9575 99.3532 35.8852 98.6498C34.8129 97.9464 33.9688 96.9459 33.4559 95.7705L33.35 95.5209L24.15 74.1723L24.3409 74.0901L33.647 95.6885C34.1693 96.8848 35.0453 97.8926 36.1573 98.5762C37.2693 99.2598 38.564 99.5865 39.8672 99.5125L67.3265 97.8904L66.9863 86.2275L44.1424 86.2123L37.4878 69.9807L37.6801 69.9019L44.2815 86.0044L67.1878 86.0198L67.5399 98.0863L67.439 98.0921L39.8791 99.7204C39.7504 99.7276 39.622 99.7312 39.4939 99.7312Z" fill="#0C0C0C"/>
<path d="M176.971 101.403L176.557 101.444L185.324 188.235L185.738 188.193L176.971 101.403Z" fill="#494949"/>
<path d="M14.05 101.404L5.27701 188.194L5.69081 188.236L14.4638 101.446L14.05 101.404Z" fill="#494949"/>
<path d="M50.2966 101.404L41.5236 188.194L41.9374 188.236L50.7104 101.445L50.2966 101.404Z" fill="#494949"/>
<path d="M213.218 101.402L212.804 101.444L221.571 188.235L221.985 188.193L213.218 101.402Z" fill="#494949"/>
<path d="M221.123 99.72H6.71889C5.7778 99.72 5.01489 100.483 5.01489 101.424C5.01489 102.365 5.7778 103.128 6.71889 103.128H221.123C222.064 103.128 222.827 102.365 222.827 101.424C222.827 100.483 222.064 99.72 221.123 99.72Z" fill="#292A2E"/>
<path opacity="0.8" d="M221.123 99.72H6.71889C5.7778 99.72 5.01489 100.483 5.01489 101.424C5.01489 102.365 5.7778 103.128 6.71889 103.128H221.123C222.064 103.128 222.827 102.365 222.827 101.424C222.827 100.483 222.064 99.72 221.123 99.72Z" fill="white"/>
<path d="M221.124 103.336H6.71971C6.46696 103.338 6.2162 103.291 5.98193 103.196C5.74766 103.101 5.53454 102.961 5.35488 102.783C5.17522 102.605 5.0326 102.393 4.93526 102.16C4.83793 101.927 4.78781 101.677 4.78781 101.424C4.78781 101.171 4.83793 100.921 4.93526 100.688C5.0326 100.454 5.17522 100.243 5.35488 100.065C5.53454 99.8871 5.74766 99.7467 5.98193 99.6518C6.2162 99.5569 6.46696 99.5094 6.71971 99.5121H221.124C221.627 99.5173 222.108 99.721 222.463 100.079C222.817 100.437 223.016 100.92 223.016 101.424C223.016 101.928 222.817 102.411 222.463 102.769C222.108 103.127 221.627 103.331 221.124 103.336ZM6.71971 99.928C6.52178 99.9256 6.32535 99.9626 6.1418 100.037C5.95826 100.111 5.79126 100.221 5.65046 100.36C5.50967 100.499 5.39789 100.665 5.3216 100.847C5.24531 101.03 5.20603 101.226 5.20603 101.424C5.20603 101.622 5.24531 101.818 5.3216 102C5.39789 102.183 5.50967 102.349 5.65046 102.488C5.79126 102.627 5.95826 102.737 6.1418 102.811C6.32535 102.885 6.52178 102.922 6.71971 102.92H221.124C221.517 102.915 221.893 102.756 222.17 102.476C222.447 102.195 222.602 101.818 222.602 101.424C222.602 101.03 222.447 100.652 222.17 100.372C221.893 100.092 221.517 99.9326 221.124 99.928H6.71971Z" fill="#292A2E"/>
<path d="M221.123 99.72H44.351C43.4099 99.72 42.647 100.483 42.647 101.424C42.647 102.365 43.4099 103.128 44.351 103.128H221.123C222.064 103.128 222.827 102.365 222.827 101.424C222.827 100.483 222.064 99.72 221.123 99.72Z" fill="white"/>
<path d="M221.124 103.336H44.3508C43.8472 103.331 43.366 103.127 43.0117 102.769C42.6575 102.411 42.4588 101.928 42.4588 101.424C42.4588 100.92 42.6575 100.437 43.0117 100.079C43.366 99.721 43.8472 99.5173 44.3508 99.5121H221.124C221.627 99.5173 222.108 99.721 222.463 100.079C222.817 100.437 223.016 100.92 223.016 101.424C223.016 101.928 222.817 102.411 222.463 102.769C222.108 103.127 221.627 103.331 221.124 103.336ZM44.3508 99.928C43.9571 99.9326 43.5811 100.092 43.3043 100.372C43.0276 100.652 42.8724 101.03 42.8724 101.424C42.8724 101.818 43.0276 102.195 43.3043 102.476C43.5811 102.756 43.9571 102.915 44.3508 102.92H221.124C221.517 102.915 221.893 102.756 222.17 102.476C222.447 102.195 222.602 101.818 222.602 101.424C222.602 101.03 222.447 100.652 222.17 100.372C221.893 100.092 221.517 99.9326 221.124 99.928H44.3508Z" fill="#292A2E"/>
</svg>
