<svg width="300" height="189" viewBox="0 0 300 189" fill="none" xmlns="http://www.w3.org/2000/svg">
<g clip-path="url(#clip0_8_1650)">
<path d="M257.415 123.034L256.852 123.096L263.801 186.595L264.364 186.533L257.415 123.034Z" fill="#292A2E"/>
<path d="M275.414 150.755L271.995 184.573L272.559 184.63L275.977 150.812L275.414 150.755Z" fill="#292A2E"/>
<path d="M281.292 180.485H255.925V188.717H281.292V180.485Z" fill="#292A2E"/>
<path opacity="0.2" d="M281.292 180.485H255.925V188.717H281.292V180.485Z" fill="white"/>
<path d="M296.585 165.328C301.39 158.942 299.099 149.11 291.468 143.369C283.836 137.627 273.754 138.15 268.948 144.536C264.143 150.923 266.434 160.754 274.065 166.495C281.697 172.237 291.779 171.714 296.585 165.328Z" fill="#0CBC8B"/>
<path opacity="0.2" d="M296.585 165.328C301.39 158.942 299.099 149.11 291.468 143.369C283.836 137.627 273.754 138.15 268.948 144.536C264.143 150.923 266.434 160.754 274.065 166.495C281.697 172.237 291.779 171.714 296.585 165.328Z" fill="white"/>
<path opacity="0.5" d="M296.584 165.329C296.262 165.76 295.91 166.168 295.531 166.55C290.241 169.929 282.433 169.397 276.238 164.737C268.607 158.996 266.317 149.165 271.123 142.779C271.446 142.349 271.797 141.941 272.174 141.558C277.468 138.176 285.273 138.71 291.469 143.369C299.1 149.111 301.39 158.943 296.584 165.329Z" fill="white"/>
<path d="M261.184 141.1C268.744 135.265 270.799 125.257 265.773 118.747C260.748 112.238 250.545 111.691 242.985 117.526C235.425 123.361 233.37 133.369 238.395 139.878C243.421 146.388 253.624 146.935 261.184 141.1Z" fill="#0CBC8B"/>
<path opacity="0.2" d="M258.788 139.425C252.933 143.946 245.492 144.635 240.098 141.692C239.474 141.142 238.904 140.534 238.396 139.875C233.369 133.368 235.423 123.359 242.984 117.525C248.839 113.006 256.28 112.314 261.671 115.255C262.296 115.805 262.867 116.414 263.376 117.074C268.402 123.582 266.348 133.591 258.788 139.425Z" fill="white"/>
<path d="M29.7098 73.5488C44.9174 73.5488 57.2456 61.2219 57.2456 46.0159C57.2456 30.8099 44.9174 18.4829 29.7098 18.4829C14.5022 18.4829 2.17398 30.8099 2.17398 46.0159C2.17398 61.2219 14.5022 73.5488 29.7098 73.5488Z" fill="#FF9800"/>
<g opacity="0.05">
<path d="M29.7098 67.8427C41.7657 67.8427 51.5389 58.0705 51.5389 46.0159C51.5389 33.9612 41.7657 24.1891 29.7098 24.1891C17.6539 24.1891 7.88071 33.9612 7.88071 46.0159C7.88071 58.0705 17.6539 67.8427 29.7098 67.8427Z" fill="#292A2E"/>
</g>
<path d="M22.5648 53.8123L24.6012 50.6549C26.2147 51.8915 27.6269 52.523 29.1281 52.523C30.9278 52.523 31.7196 51.7766 31.7196 50.3317C31.7196 47.0654 23.3381 47.1243 23.3381 41.3952C23.3381 37.7123 25.8894 35.3664 29.9127 35.3664C32.6288 35.3664 34.4742 36.4873 35.9572 38.0598L33.6218 40.7349C32.4677 39.6854 31.4892 39.1326 30.1633 39.1326C28.6347 39.1326 27.8072 39.7485 27.8072 41.1747C27.8072 44.2033 36.1884 43.9381 36.1884 50.0056C36.1884 53.6515 33.7758 56.2892 29.1281 56.2892C27.1228 56.2883 24.358 55.4369 22.5648 53.8123ZM28.1495 32.2544H31.2469V36.8266H28.1495V32.2544ZM28.1495 54.3829H31.2469V59.3995H28.1495V54.3829Z" fill="white"/>
<path d="M272.464 55.0659C287.672 55.0659 300 42.7389 300 27.5329C300 12.3269 287.672 0 272.464 0C257.257 0 244.929 12.3269 244.929 27.5329C244.929 42.7389 257.257 55.0659 272.464 55.0659Z" fill="#FF9800"/>
<g opacity="0.05">
<path d="M272.464 49.3597C284.52 49.3597 294.294 39.5875 294.294 27.5329C294.294 15.4783 284.52 5.70612 272.464 5.70612C260.409 5.70612 250.635 15.4783 250.635 27.5329C250.635 39.5875 260.409 49.3597 272.464 49.3597Z" fill="#292A2E"/>
</g>
<path d="M265.319 35.3291L267.356 32.172C268.969 33.4083 270.381 34.0401 271.883 34.0401C273.683 34.0401 274.474 33.2934 274.474 31.8485C274.474 28.5822 266.093 28.641 266.093 22.912C266.093 19.2293 268.644 16.8832 272.667 16.8832C275.383 16.8832 277.229 18.0038 278.712 19.5763L276.376 22.2514C275.222 21.2018 274.244 20.6493 272.918 20.6493C271.389 20.6493 270.562 21.2652 270.562 22.6915C270.562 25.72 278.943 25.4546 278.943 31.5224C278.943 35.168 276.53 37.806 271.883 37.806C269.877 37.8054 267.112 36.954 265.319 35.3291ZM270.904 13.7714H274.001V18.3434H270.904V13.7714ZM270.904 35.8997H274.001V40.9166H270.904V35.8997Z" fill="white"/>
<path d="M248.962 14.1702H57.977C53.287 14.1702 49.4849 17.9719 49.4849 22.6615V162.477C49.4849 167.167 53.287 170.969 57.977 170.969H248.962C253.652 170.969 257.454 167.167 257.454 162.477V22.6615C257.454 17.9719 253.652 14.1702 248.962 14.1702Z" fill="white"/>
<path d="M248.962 171.251H57.9771C55.6506 171.249 53.4201 170.323 51.775 168.678C50.1299 167.033 49.2045 164.803 49.2018 162.477V22.6615C49.2045 20.3352 50.1298 18.1049 51.7749 16.46C53.42 14.8151 55.6505 13.8898 57.9771 13.8872H248.962C251.288 13.8897 253.519 14.815 255.164 16.4599C256.809 18.1049 257.734 20.3352 257.737 22.6615V162.477C257.734 164.803 256.809 167.033 255.164 168.678C253.519 170.323 251.288 171.249 248.962 171.251ZM57.9771 14.4533C55.8006 14.4557 53.714 15.3212 52.175 16.86C50.636 18.3989 49.7704 20.4853 49.768 22.6615V162.477C49.7704 164.653 50.636 166.74 52.175 168.278C53.714 169.817 55.8006 170.683 57.9771 170.685H248.962C251.138 170.683 253.225 169.817 254.764 168.278C256.303 166.74 257.168 164.653 257.171 162.477V22.6615C257.168 20.4853 256.303 18.3989 254.764 16.86C253.225 15.3212 251.138 14.4557 248.962 14.4533H57.9771Z" fill="#292A2E"/>
<path d="M86.6074 90.8059C86.4959 90.806 86.3854 90.7841 86.2824 90.7414C86.1793 90.6987 86.0858 90.636 86.007 90.5571L82.044 86.5945C81.8893 86.4343 81.8037 86.2198 81.8056 85.9972C81.8076 85.7746 81.8969 85.5616 82.0543 85.4042C82.2118 85.2467 82.4248 85.1574 82.6474 85.1555C82.8701 85.1536 83.0846 85.2391 83.2448 85.3938L87.2078 89.3564C87.3265 89.4752 87.4074 89.6264 87.4401 89.7911C87.4729 89.9558 87.4561 90.1265 87.3918 90.2817C87.3275 90.4368 87.2187 90.5694 87.0791 90.6627C86.9395 90.756 86.7753 90.8058 86.6074 90.8059Z" fill="#0CBC8B"/>
<path d="M82.6442 90.8059C82.4763 90.8058 82.3121 90.756 82.1725 90.6627C82.0329 90.5694 81.9241 90.4368 81.8598 90.2817C81.7955 90.1265 81.7787 89.9558 81.8115 89.7911C81.8442 89.6264 81.9251 89.4752 82.0438 89.3564L86.0068 85.3938C86.167 85.2391 86.3815 85.1536 86.6042 85.1555C86.8268 85.1574 87.0398 85.2467 87.1973 85.4042C87.3547 85.5616 87.444 85.7746 87.446 85.9972C87.4479 86.2198 87.3623 86.4343 87.2076 86.5945L83.2446 90.5571C83.1659 90.6361 83.0723 90.6987 82.9692 90.7414C82.8662 90.7841 82.7557 90.806 82.6442 90.8059Z" fill="#0CBC8B"/>
<path d="M200.076 128.68L198.945 131.274L205.907 134.309L207.038 131.715L200.076 128.68Z" fill="#0CBC8B"/>
<path d="M202.274 59.1195L195.726 62.9666L197.16 65.4069L203.708 61.5598L202.274 59.1195Z" fill="#0CBC8B"/>
<path d="M93.1638 65.7078L92.2868 68.399L99.508 70.7516L100.385 68.0604L93.1638 65.7078Z" fill="#0CBC8B"/>
<path d="M101.617 110.845L95.3975 115.196L97.0195 117.514L103.239 113.163L101.617 110.845Z" fill="#0CBC8B"/>
<path d="M215.7 100.871L215.44 103.689L222.837 104.371L223.097 101.553L215.7 100.871Z" fill="#0CBC8B"/>
<path d="M223.233 80.5968C223.121 80.597 223.011 80.5751 222.908 80.5324C222.805 80.4897 222.711 80.427 222.633 80.348L218.67 76.3854C218.588 76.3071 218.524 76.2134 218.479 76.1098C218.435 76.0062 218.411 75.8948 218.41 75.782C218.409 75.6693 218.431 75.5575 218.474 75.4531C218.516 75.3488 218.579 75.254 218.659 75.1742C218.739 75.0945 218.834 75.0315 218.938 74.9888C219.042 74.9461 219.154 74.9246 219.267 74.9256C219.38 74.9265 219.491 74.95 219.595 74.9945C219.698 75.039 219.792 75.1037 219.87 75.1848L223.833 79.1474C223.952 79.2661 224.033 79.4174 224.066 79.5821C224.098 79.7468 224.082 79.9175 224.017 80.0726C223.953 80.2277 223.844 80.3604 223.705 80.4537C223.565 80.547 223.401 80.5968 223.233 80.5968Z" fill="#0CBC8B"/>
<path d="M219.27 80.5968C219.102 80.5968 218.938 80.547 218.798 80.4537C218.659 80.3604 218.55 80.2277 218.486 80.0726C218.421 79.9175 218.405 79.7468 218.437 79.5821C218.47 79.4174 218.551 79.2661 218.67 79.1474L222.633 75.1848C222.711 75.1037 222.805 75.039 222.908 74.9945C223.012 74.95 223.123 74.9265 223.236 74.9256C223.349 74.9246 223.461 74.9461 223.565 74.9888C223.669 75.0315 223.764 75.0945 223.844 75.1742C223.924 75.254 223.987 75.3488 224.03 75.4531C224.072 75.5575 224.094 75.6693 224.093 75.782C224.092 75.8948 224.068 76.0062 224.024 76.1098C223.979 76.2134 223.915 76.3071 223.834 76.3854L219.871 80.348C219.792 80.427 219.698 80.4896 219.595 80.5323C219.492 80.575 219.382 80.5969 219.27 80.5968Z" fill="#0CBC8B"/>
<path opacity="0.4" d="M153.47 141.829C178.41 141.829 198.628 121.613 198.628 96.6759C198.628 71.7383 178.41 51.5225 153.47 51.5225C128.529 51.5225 108.311 71.7383 108.311 96.6759C108.311 121.613 128.529 141.829 153.47 141.829Z" fill="#0CBC8B"/>
<path d="M153.47 128.254C170.912 128.254 185.051 114.116 185.051 96.6759C185.051 79.2357 170.912 65.0977 153.47 65.0977C136.028 65.0977 121.888 79.2357 121.888 96.6759C121.888 114.116 136.028 128.254 153.47 128.254Z" fill="#0CBC8B"/>
<path d="M147.012 110.223C146.764 110.223 146.518 110.173 146.29 110.076C146.062 109.979 145.856 109.836 145.685 109.657L135.633 99.1967C135.462 99.0231 135.328 98.8174 135.237 98.5916C135.147 98.3657 135.102 98.1241 135.105 97.8808C135.109 97.6375 135.161 97.3974 135.258 97.1742C135.355 96.951 135.495 96.7493 135.67 96.5807C135.846 96.4121 136.053 96.28 136.28 96.192C136.507 96.104 136.749 96.0619 136.992 96.0681C137.235 96.0743 137.475 96.1287 137.697 96.2281C137.919 96.3275 138.119 96.47 138.286 96.6473L147.106 105.826L170.167 85.1414C170.346 84.9773 170.556 84.8505 170.785 84.7681C171.014 84.6857 171.256 84.6495 171.499 84.6615C171.742 84.6735 171.98 84.7335 172.199 84.838C172.419 84.9425 172.615 85.0895 172.778 85.2704C172.94 85.4514 173.065 85.6627 173.145 85.8921C173.225 86.1216 173.259 86.3647 173.245 86.6073C173.231 86.85 173.168 87.0874 173.062 87.3058C172.955 87.5243 172.806 87.7195 172.624 87.8801L148.24 109.752C147.903 110.055 147.466 110.223 147.012 110.223Z" fill="white"/>
<path d="M257.454 22.6604V31.2046H49.4857V22.6604C49.4857 20.4083 50.3805 18.2486 51.973 16.6561C53.5656 15.0637 55.7256 14.1691 57.9779 14.1691H248.962C251.214 14.1691 253.374 15.0637 254.966 16.6561C256.559 18.2486 257.454 20.4083 257.454 22.6604Z" fill="#292A2E"/>
<path d="M10.6138 171.993C8.90367 171.992 7.21896 171.579 5.703 170.788C4.18705 169.996 2.88473 168.85 1.90688 167.448C0.929032 166.045 0.304605 164.427 0.0867426 162.731C-0.13112 161.035 0.0640303 159.311 0.655586 157.707C1.25598 156.078 16.6562 116.328 19.3383 109.42L37.8713 120.204C36.364 124.089 30.9024 138.812 26.5148 150.674L33.8041 149.881L36.0984 169.287L11.7639 171.932C11.3819 171.973 10.998 171.993 10.6138 171.993Z" fill="#FF4165"/>
<path d="M23.335 172.607L20.0981 188.717H82.968L79.3467 172.301L23.335 172.607Z" fill="#262626"/>
<path d="M71.2322 101.154C71.1671 101.145 69.3837 107.856 55.4651 106.812C45.8293 106.09 43.4798 99.5318 43.259 99.5318C44.2979 99.311 45.985 99.0817 46.4464 98.8355C47.9637 98.0203 49.0688 97.028 49.6253 94.8984C50.0604 93.233 50.282 86.8218 50.282 83.605L65.1093 86.9364C64.9027 90.565 63.4562 98.977 68.526 100.466C69.3696 100.712 70.2782 100.938 71.2322 101.154Z" fill="#E98862"/>
<path d="M64.597 94.0702C58.7518 94.5315 51.243 92.0637 49.8166 84.2659L48.5298 77.23C47.1034 69.4322 50.0434 62.3618 57.3863 61.0191C64.7289 59.6763 71.3737 64.9938 72.7998 72.7916L73.3696 75.9068C73.916 78.8985 75.0253 93.2477 64.597 94.0702Z" fill="#E98862"/>
<path d="M36.9284 100.611C31.6757 101.001 26.3197 101.57 22.4546 105.148C17.7998 109.457 16.9563 114.755 19.926 129.336C22.481 141.881 21.4676 147.364 23.1768 170.514C23.2272 171.196 23.335 172.607 23.335 172.607L79.5247 172.514C79.5247 172.514 84.7899 141.799 87.6967 127.632C89.9072 116.862 95.7136 103.788 71.2322 101.153C71.1676 101.146 51.5329 99.5278 36.9284 100.611Z" fill="#FF4165"/>
<path d="M23.335 172.749C23.2984 172.749 23.2632 172.734 23.2368 172.709C23.2104 172.684 23.1948 172.649 23.1935 172.612L21.4325 126.908C21.4311 126.871 21.4447 126.834 21.4702 126.807C21.4957 126.779 21.5311 126.763 21.5686 126.762C21.5874 126.76 21.6062 126.762 21.624 126.769C21.6418 126.775 21.6581 126.784 21.6719 126.797C21.6857 126.81 21.6967 126.825 21.7043 126.843C21.7118 126.86 21.7156 126.879 21.7155 126.897L23.4765 172.602C23.4779 172.639 23.4643 172.676 23.4388 172.703C23.4133 172.731 23.3779 172.747 23.3404 172.748L23.335 172.749Z" fill="#0C0C0C"/>
<path d="M113.497 116.93L117.445 108.075C117.532 107.881 117.658 107.706 117.816 107.563C117.974 107.42 118.159 107.312 118.362 107.245C118.564 107.177 118.778 107.153 118.99 107.173C119.202 107.193 119.408 107.257 119.594 107.36C119.931 107.563 120.182 107.883 120.297 108.26C120.411 108.636 120.382 109.042 120.215 109.398L119.368 111.297L124.771 106.548C125.362 106.01 126.433 105.727 126.993 106.43C127.226 106.687 127.366 107.015 127.389 107.361C127.412 107.707 127.317 108.05 127.119 108.335C127.126 108.339 127.132 108.344 127.137 108.35C127.14 108.355 127.143 108.36 127.146 108.365L128.058 107.535C128.227 107.381 128.428 107.267 128.647 107.201C128.865 107.135 129.096 107.119 129.322 107.153C129.548 107.187 129.763 107.272 129.952 107.4C130.142 107.528 130.3 107.696 130.415 107.893C130.591 108.207 130.654 108.572 130.593 108.927C130.533 109.281 130.352 109.604 130.081 109.842L129.693 110.195C129.698 110.211 129.7 110.228 129.7 110.244C130.017 110.067 130.388 110.007 130.745 110.078C131.102 110.148 131.423 110.343 131.649 110.628C131.888 110.947 131.998 111.344 131.956 111.741C131.915 112.137 131.726 112.503 131.427 112.766L130.464 113.643C130.486 113.641 130.509 113.643 130.53 113.651C130.552 113.659 130.571 113.671 130.586 113.688C130.603 113.708 130.614 113.733 130.617 113.76C130.944 113.68 131.288 113.71 131.596 113.845C131.905 113.979 132.16 114.212 132.324 114.506C132.489 114.818 132.544 115.177 132.48 115.525C132.416 115.873 132.236 116.188 131.97 116.421L123.836 123.826C122.698 124.862 121.277 125.534 119.754 125.757C118.231 125.98 116.677 125.743 115.289 125.077C114.093 124.502 113.168 123.484 112.711 122.239C112.254 120.993 112.3 119.619 112.841 118.407L113.497 116.93Z" fill="#E98862"/>
<g opacity="0.2">
<path d="M121.794 113.061C121.82 113.089 121.854 113.105 121.891 113.107C121.928 113.109 121.965 113.096 121.993 113.071L127.125 108.549C127.139 108.536 127.15 108.521 127.158 108.505C127.167 108.488 127.171 108.47 127.173 108.451C127.174 108.433 127.171 108.414 127.165 108.397C127.159 108.379 127.15 108.363 127.137 108.349C127.125 108.335 127.11 108.324 127.093 108.315C127.077 108.307 127.059 108.302 127.04 108.301C127.022 108.3 127.003 108.303 126.985 108.309C126.968 108.315 126.951 108.324 126.938 108.336L121.806 112.859C121.792 112.871 121.78 112.886 121.772 112.903C121.764 112.919 121.759 112.938 121.758 112.956C121.757 112.975 121.759 112.993 121.766 113.011C121.772 113.028 121.781 113.045 121.793 113.059L121.794 113.061Z" fill="#0C0C0C"/>
</g>
<g opacity="0.2">
<path d="M123.727 115.38C123.752 115.407 123.787 115.423 123.824 115.425C123.861 115.427 123.897 115.414 123.925 115.389L129.653 110.342C129.667 110.33 129.678 110.315 129.686 110.298C129.694 110.282 129.699 110.264 129.7 110.245C129.702 110.226 129.699 110.208 129.693 110.19C129.687 110.173 129.678 110.156 129.665 110.142C129.64 110.115 129.605 110.099 129.568 110.097C129.531 110.094 129.494 110.106 129.465 110.13L123.738 115.177C123.724 115.19 123.712 115.204 123.704 115.221C123.696 115.238 123.691 115.256 123.69 115.275C123.689 115.293 123.691 115.312 123.697 115.329C123.704 115.347 123.713 115.363 123.725 115.377L123.727 115.38Z" fill="#0C0C0C"/>
</g>
<g opacity="0.2">
<path d="M125.806 117.902C125.831 117.93 125.865 117.946 125.903 117.948C125.94 117.95 125.976 117.937 126.004 117.913L130.572 113.887C130.601 113.862 130.618 113.827 130.62 113.789C130.623 113.752 130.61 113.715 130.585 113.687C130.56 113.658 130.525 113.641 130.488 113.639C130.45 113.636 130.413 113.649 130.385 113.674L125.816 117.7C125.802 117.713 125.791 117.727 125.783 117.744C125.775 117.761 125.77 117.779 125.769 117.798C125.768 117.816 125.77 117.835 125.776 117.852C125.782 117.87 125.792 117.886 125.804 117.9L125.806 117.902Z" fill="#0C0C0C"/>
</g>
<path d="M70.0161 86.9109C68.967 81.6395 68.4858 78.1228 68.5416 74.4124C70.0195 71.8203 69.6308 68.8455 69.2948 67.5599C70.7433 68.3502 71.3491 68.4373 72.7124 68.4373C72.7124 68.4373 70.2683 58.6296 61.9613 55.9905C60.4327 55.3962 56.5337 54.6452 51.3552 55.3554C46.9506 55.9594 36.0931 59.2523 34.5407 71.4747V71.4817C34.4892 71.887 33.4469 83.1479 31.3686 88.5509C28.5744 95.8143 24.6522 98.071 24.7515 106.451C24.8795 117.23 44.6985 118.665 56.6537 117.858C68.609 117.05 75.2798 113.121 75.367 105.353C75.4633 96.649 72.1154 97.4574 70.0161 86.9109Z" fill="#0A0A0A"/>
<path d="M70.0195 82.4924C67.788 82.9002 65.5424 80.8439 65.1345 78.613C64.7266 76.382 66.3101 74.8202 68.5416 74.4124L70.0195 82.4924Z" fill="#E98862"/>
<path d="M94.0203 170.386C91.7757 170.385 89.589 169.674 87.7739 168.354C85.9589 167.033 84.6088 165.172 83.9175 163.037L69.1694 117.429L89.37 110.898L97.1262 134.887L110.53 113.573L128.503 124.873L103.004 165.421C102.049 166.941 100.723 168.193 99.1522 169.061C97.581 169.929 95.8154 170.385 94.0203 170.386Z" fill="#FF4165"/>
<path d="M82.1191 157.793C82.1104 157.794 82.1017 157.793 82.0931 157.791C82.0562 157.784 82.0235 157.763 82.0023 157.732C81.981 157.701 81.973 157.663 81.9798 157.626L86.9933 130.414C87.0001 130.377 87.0213 130.345 87.0522 130.323C87.0831 130.302 87.1213 130.294 87.1582 130.301C87.1951 130.307 87.2279 130.329 87.2492 130.359C87.2705 130.39 87.2787 130.429 87.2719 130.465L82.2584 157.678C82.2524 157.71 82.2351 157.74 82.2097 157.761C82.1842 157.782 82.1522 157.793 82.1191 157.793Z" fill="#0C0C0C"/>
<path d="M98.9304 141.311C98.8991 141.311 98.8685 141.3 98.8437 141.281C98.8188 141.262 98.8011 141.235 98.7932 141.205L97.123 134.772C97.1184 134.754 97.1173 134.736 97.1199 134.717C97.1224 134.699 97.1286 134.681 97.138 134.665C97.1475 134.649 97.16 134.635 97.1748 134.624C97.1896 134.613 97.2065 134.604 97.2245 134.6C97.2425 134.595 97.2612 134.594 97.2796 134.597C97.2981 134.599 97.3158 134.605 97.3318 134.615C97.3478 134.624 97.3618 134.637 97.373 134.651C97.3842 134.666 97.3924 134.683 97.397 134.701L99.0672 141.134C99.0765 141.17 99.0711 141.209 99.052 141.241C99.033 141.273 99.0019 141.297 98.9655 141.306C98.9541 141.309 98.9423 141.311 98.9304 141.311Z" fill="#0C0C0C"/>
<path d="M6.44411 189H289.414C289.489 189 289.561 188.97 289.614 188.917C289.667 188.864 289.697 188.792 289.697 188.717C289.697 188.642 289.667 188.57 289.614 188.517C289.561 188.464 289.489 188.434 289.414 188.434H6.44411C6.36904 188.434 6.29704 188.464 6.24395 188.517C6.19087 188.57 6.16104 188.642 6.16104 188.717C6.16104 188.792 6.19087 188.864 6.24395 188.917C6.29704 188.97 6.36904 189 6.44411 189Z" fill="#292A2E"/>
<path d="M223.055 93.9802L277.219 93.9802C280.076 93.9802 282.393 91.664 282.393 88.8068V53.3133C282.393 50.4561 280.076 48.1398 277.219 48.1398L223.055 48.1398C220.197 48.1398 217.881 50.4561 217.881 53.3133V88.8068C217.881 91.664 220.197 93.9802 223.055 93.9802Z" fill="#292A2E"/>
<path d="M232.548 54.5258H225.785C224.616 54.5258 223.668 55.4734 223.668 56.6424V60.5809C223.668 61.7499 224.616 62.6975 225.785 62.6975H232.548C233.717 62.6975 234.665 61.7499 234.665 60.5809V56.6424C234.665 55.4734 233.717 54.5258 232.548 54.5258Z" fill="white"/>
<path d="M234.665 55.4321V57.3497H230.939L230.338 56.75V54.5269H233.758C233.877 54.5269 233.995 54.5502 234.105 54.5957C234.215 54.6411 234.315 54.7078 234.399 54.7918C234.483 54.8759 234.55 54.9757 234.596 55.0856C234.641 55.1954 234.665 55.3132 234.665 55.4321Z" fill="#0CBC8B"/>
<path d="M234.665 59.8733V61.7909C234.665 62.0312 234.569 62.2615 234.399 62.4314C234.23 62.6013 233.999 62.6967 233.759 62.6967H230.338V60.4134L230.939 59.8728L234.665 59.8733Z" fill="#0CBC8B"/>
<path d="M227.934 54.5258V56.75L227.394 57.3509H223.668V55.4333C223.668 55.3143 223.691 55.1965 223.737 55.0866C223.783 54.9768 223.849 54.8769 223.933 54.7928C224.017 54.7087 224.117 54.642 224.227 54.5965C224.337 54.5509 224.455 54.5275 224.574 54.5275L227.934 54.5258Z" fill="#0CBC8B"/>
<path d="M227.935 60.4139V62.6972H224.575C224.456 62.6972 224.338 62.6738 224.228 62.6283C224.118 62.5828 224.018 62.5161 223.934 62.432C223.85 62.3479 223.783 62.248 223.738 62.1381C223.692 62.0282 223.669 61.9105 223.669 61.7915V59.8739H227.395L227.935 60.4139Z" fill="#0CBC8B"/>
<path d="M277.379 84.8784C277.379 86.1533 276.873 87.3759 275.971 88.2774C275.07 89.1789 273.847 89.6853 272.572 89.6853C271.297 89.6853 270.074 89.1789 269.172 88.2774C268.271 87.3759 267.764 86.1533 267.764 84.8784C267.765 84.1619 267.928 83.4547 268.24 82.8097C268.552 82.1647 269.006 81.5985 269.567 81.1533C270.27 80.5788 271.121 80.2159 272.022 80.107C272.923 79.9981 273.836 80.1476 274.655 80.5381C275.474 80.9287 276.166 81.5441 276.648 82.3127C277.13 83.0812 277.384 83.971 277.38 84.8784H277.379Z" fill="white"/>
<path d="M267.764 88.6038C267.06 89.1785 266.206 89.5415 265.304 89.6507C264.401 89.7599 263.485 89.6108 262.664 89.2208C261.843 88.8307 261.149 88.2157 260.663 87.4471C260.177 86.6785 259.919 85.7878 259.919 84.8786C259.919 83.9693 260.177 83.0786 260.663 82.31C261.149 81.5415 261.843 80.9264 262.664 80.5364C263.485 80.1463 264.401 79.9972 265.304 80.1064C266.206 80.2156 267.06 80.5786 267.764 81.1533C266.683 82.0545 266.199 83.3763 266.199 84.8784C266.199 86.3805 266.682 87.7626 267.764 88.6038Z" fill="#0CBC8B"/>
<path d="M234.139 69.2913H224.552C224.064 69.2913 223.668 69.6872 223.668 70.1755V70.1758C223.668 70.6641 224.064 71.06 224.552 71.06H234.139C234.627 71.06 235.023 70.6641 235.023 70.1758V70.1755C235.023 69.6872 234.627 69.2913 234.139 69.2913Z" fill="white"/>
<path d="M248.258 69.2913H238.671C238.183 69.2913 237.787 69.6872 237.787 70.1755V70.1758C237.787 70.6641 238.183 71.06 238.671 71.06H248.258C248.746 71.06 249.142 70.6641 249.142 70.1758V70.1755C249.142 69.6872 248.746 69.2913 248.258 69.2913Z" fill="white"/>
<path d="M262.376 69.2913H252.79C252.301 69.2913 251.905 69.6872 251.905 70.1755V70.1758C251.905 70.6641 252.301 71.06 252.79 71.06H262.376C262.864 71.06 263.26 70.6641 263.26 70.1758V70.1755C263.26 69.6872 262.864 69.2913 262.376 69.2913Z" fill="white"/>
<path d="M276.495 69.2913H266.908C266.42 69.2913 266.024 69.6872 266.024 70.1755V70.1758C266.024 70.6641 266.42 71.06 266.908 71.06H276.495C276.983 71.06 277.379 70.6641 277.379 70.1758V70.1755C277.379 69.6872 276.983 69.2913 276.495 69.2913Z" fill="white"/>
</g>
<defs>
<clipPath id="clip0_8_1650">
<rect width="300" height="189" fill="white"/>
</clipPath>
</defs>
</svg>
